G04 DipTrace Beta 2.3.9.1*
%INswarm.gto*%
%MOIN*%
%ADD10C,0.0098*%
%ADD19C,0.0039*%
%ADD20C,0.0197*%
%ADD22O,0.0164X0.0165*%
%ADD28C,0.0154*%
%ADD81C,0.0077*%
%FSLAX44Y44*%
G04*
G70*
G90*
G75*
G01*
%LNTopSilk*%
%LPD*%
X18929Y13252D2*
D10*
Y12622D1*
X19004Y13252D2*
Y12622D1*
Y13252D2*
X18768D1*
X19004Y12622D2*
X18768D1*
X18445Y23122D2*
Y23752D1*
X18370Y23122D2*
Y23752D1*
Y23122D2*
X18606D1*
X18370Y23752D2*
X18606D1*
X23122Y15929D2*
X23752D1*
X23122Y16004D2*
X23752D1*
X23122D2*
Y15768D1*
X23752Y16004D2*
Y15768D1*
X23122Y13429D2*
X23752D1*
X23122Y13504D2*
X23752D1*
X23122D2*
Y13268D1*
X23752Y13504D2*
Y13268D1*
X7252Y5945D2*
X6622D1*
X7252Y5870D2*
X6622D1*
X7252D2*
Y6106D1*
X6622Y5870D2*
Y6106D1*
X7622Y8429D2*
X8252D1*
X7622Y8504D2*
X8252D1*
X7622D2*
Y8268D1*
X8252Y8504D2*
Y8268D1*
X8945Y6122D2*
Y6752D1*
X8870Y6122D2*
Y6752D1*
Y6122D2*
X9106D1*
X8870Y6752D2*
X9106D1*
X9945Y10622D2*
Y11252D1*
X9870Y10622D2*
Y11252D1*
Y10622D2*
X10106D1*
X9870Y11252D2*
X10106D1*
X7622Y11429D2*
X8252D1*
X7622Y11504D2*
X8252D1*
X7622D2*
Y11268D1*
X8252Y11504D2*
Y11268D1*
X5688Y22835D2*
X7186D1*
X5685Y22832D2*
G03X7189Y22832I752J-998D01*
G01*
X8688Y22835D2*
X10186D1*
X8685Y22832D2*
G03X10189Y22832I752J-998D01*
G01*
X6122Y16370D2*
Y16606D1*
X6752Y16370D2*
Y16606D1*
Y16445D2*
X6122D1*
X6752Y16370D2*
X6122D1*
X7622D2*
Y16606D1*
X8252Y16370D2*
Y16606D1*
Y16445D2*
X7622D1*
X8252Y16370D2*
X7622D1*
X12370Y13252D2*
X12606D1*
X12370Y12622D2*
X12606D1*
X12445D2*
Y13252D1*
X12370Y12622D2*
Y13252D1*
X11252Y15870D2*
Y16106D1*
X10622Y15870D2*
Y16106D1*
X21122Y10504D2*
Y10268D1*
X21752Y10504D2*
Y10268D1*
X25174Y12555D2*
Y12319D1*
X25803Y12555D2*
Y12319D1*
X21004Y6252D2*
X20768D1*
X21004Y5622D2*
X20768D1*
X23870D2*
X24106D1*
X23870Y6252D2*
X24106D1*
X9870Y12622D2*
X10106D1*
X9870Y13252D2*
X10106D1*
X22252Y15870D2*
Y16106D1*
X21622Y15870D2*
Y16106D1*
X22252Y13370D2*
Y13606D1*
X21622Y13370D2*
Y13606D1*
X7370Y12622D2*
X7606D1*
X7370Y13252D2*
X7606D1*
X6252Y18768D2*
Y19004D1*
X5622Y18768D2*
Y19004D1*
X7752Y18768D2*
Y19004D1*
X7122Y18768D2*
Y19004D1*
X10122D2*
Y18768D1*
X10752Y19004D2*
Y18768D1*
X8622Y19004D2*
Y18768D1*
X9252Y19004D2*
Y18768D1*
X23370Y18622D2*
X23606D1*
X23370Y19252D2*
X23606D1*
X26122Y20504D2*
Y20268D1*
X26752Y20504D2*
Y20268D1*
X25122Y20504D2*
Y20268D1*
X25752Y20504D2*
Y20268D1*
X9122Y16004D2*
Y15768D1*
X9752Y16004D2*
Y15768D1*
X25000Y15608D2*
G02X25000Y15608I650J0D01*
G01*
X26831Y16789D2*
Y14427D1*
X24469Y16789D2*
Y14427D1*
X26004D2*
X25295D1*
X26004Y16789D2*
X25295D1*
X25374Y16081D2*
D19*
Y15136D1*
X25925Y16081D2*
Y15136D1*
X25374Y15608D2*
X25433D1*
X25925D2*
X25866D1*
X25433D2*
G02X25433Y15608I39J0D01*
G01*
X25767D2*
G02X25767Y15608I39J0D01*
G01*
X25512D2*
X25827Y15746D1*
D20*
X26929Y17203D3*
X14917Y14449D2*
D10*
X17201D1*
Y16732D1*
X14917D1*
Y14449D1*
D22*
X14606Y13932D3*
G36*
X14917Y14449D2*
X15232D1*
X14917Y14764D1*
Y14449D1*
G37*
X12421Y10961D2*
D10*
X20453D1*
Y8913D2*
Y10961D1*
X12421Y8913D2*
X20453D1*
X12421D2*
Y9701D1*
Y10961D2*
Y10173D1*
Y9701D2*
G03X12421Y10173I0J236D01*
G01*
X11921Y21461D2*
X19953D1*
Y19413D2*
Y21461D1*
X11921Y19413D2*
X19953D1*
X11921D2*
Y20201D1*
Y21461D2*
Y20673D1*
Y20201D2*
G03X11921Y20673I0J236D01*
G01*
X18815Y5256D2*
X14878D1*
Y6831D1*
X18815D1*
Y5256D1*
X18028Y6437D2*
X15665D1*
Y6831D1*
X18028D1*
Y6437D1*
X17634D2*
Y6831D1*
X17240Y6437D2*
Y6831D1*
X16846Y6437D2*
Y6831D1*
X16453Y6437D2*
Y6831D1*
X12559Y24118D2*
X16496D1*
Y22543D1*
X12559D1*
Y24118D1*
X13346Y22937D2*
X15709D1*
Y22543D1*
X13346D1*
Y22937D1*
X13740D2*
Y22543D1*
X14134Y22937D2*
Y22543D1*
X14528Y22937D2*
Y22543D1*
X14921Y22937D2*
Y22543D1*
D28*
X9290Y9245D3*
X9791Y9153D2*
D10*
Y7972D1*
X9988D1*
Y9153D1*
X9791D1*
D28*
X11135Y7320D3*
X12028Y7331D2*
D10*
Y4732D1*
X13130Y7331D2*
Y4732D1*
X12028D2*
X13130D1*
X12028Y7331D2*
X13130D1*
X22315Y22205D2*
X20346D1*
Y19094D1*
X22315D1*
Y22205D1*
X22437Y7437D2*
X24437D1*
Y11437D1*
X22437D1*
Y7437D1*
X21287Y14187D2*
Y16587D1*
X19587Y14187D2*
Y16587D1*
X21087Y14187D2*
Y16587D1*
X19787D2*
Y14187D1*
X20137Y15287D2*
Y15487D1*
X20737D1*
Y15287D1*
X20137D1*
Y15637D2*
X20437D1*
X20737D1*
X20137Y15137D2*
X20437D1*
X20737D1*
X20437Y15637D2*
Y15887D1*
Y15137D2*
Y14887D1*
X19587Y14187D2*
G03X21287Y14187I850J0D01*
G01*
Y16587D2*
G03X19587Y16587I-850J0D01*
G01*
X19787Y14187D2*
G03X21087Y14187I650J0D01*
G01*
Y16587D2*
G03X19787Y16587I-650J0D01*
G01*
X18928Y13904D2*
D81*
X18904Y13952D1*
X18856Y14000D1*
X18809Y14024D1*
X18713D1*
X18665Y14000D1*
X18617Y13952D1*
X18593Y13904D1*
X18569Y13832D1*
Y13712D1*
X18593Y13641D1*
X18617Y13593D1*
X18665Y13545D1*
X18713Y13521D1*
X18809D1*
X18856Y13545D1*
X18904Y13593D1*
X18928Y13641D1*
X19082Y13927D2*
X19130Y13952D1*
X19202Y14023D1*
Y13521D1*
X18423Y24404D2*
X18399Y24452D1*
X18351Y24500D1*
X18303Y24524D1*
X18208D1*
X18160Y24500D1*
X18112Y24452D1*
X18088Y24404D1*
X18064Y24332D1*
Y24212D1*
X18088Y24141D1*
X18112Y24093D1*
X18160Y24045D1*
X18208Y24021D1*
X18303D1*
X18351Y24045D1*
X18399Y24093D1*
X18423Y24141D1*
X18602Y24404D2*
Y24427D1*
X18625Y24475D1*
X18649Y24499D1*
X18697Y24523D1*
X18793D1*
X18840Y24499D1*
X18864Y24475D1*
X18888Y24427D1*
Y24380D1*
X18864Y24332D1*
X18817Y24260D1*
X18577Y24021D1*
X18912D1*
X22470Y15821D2*
X22422Y15797D1*
X22374Y15749D1*
X22350Y15701D1*
Y15606D1*
X22374Y15557D1*
X22422Y15510D1*
X22470Y15486D1*
X22542Y15462D1*
X22662D1*
X22733Y15486D1*
X22781Y15510D1*
X22829Y15557D1*
X22853Y15606D1*
Y15701D1*
X22829Y15749D1*
X22781Y15797D1*
X22733Y15821D1*
X22351Y16023D2*
Y16286D1*
X22542Y16142D1*
Y16214D1*
X22566Y16262D1*
X22590Y16286D1*
X22662Y16310D1*
X22709D1*
X22781Y16286D1*
X22829Y16238D1*
X22853Y16166D1*
Y16094D1*
X22829Y16023D1*
X22805Y15999D1*
X22757Y15975D1*
X22470Y13309D2*
X22422Y13285D1*
X22374Y13237D1*
X22350Y13189D1*
Y13094D1*
X22374Y13046D1*
X22422Y12998D1*
X22470Y12974D1*
X22542Y12950D1*
X22662D1*
X22733Y12974D1*
X22781Y12998D1*
X22829Y13046D1*
X22853Y13094D1*
Y13189D1*
X22829Y13237D1*
X22781Y13285D1*
X22733Y13309D1*
X22853Y13702D2*
X22351D1*
X22685Y13463D1*
Y13822D1*
X5970Y5923D2*
X5922Y5899D1*
X5874Y5851D1*
X5850Y5803D1*
Y5708D1*
X5874Y5660D1*
X5922Y5612D1*
X5970Y5588D1*
X6042Y5564D1*
X6162D1*
X6233Y5588D1*
X6281Y5612D1*
X6329Y5660D1*
X6353Y5708D1*
Y5803D1*
X6329Y5851D1*
X6281Y5899D1*
X6233Y5923D1*
X5851Y6364D2*
Y6125D1*
X6066Y6102D1*
X6042Y6125D1*
X6018Y6197D1*
Y6269D1*
X6042Y6340D1*
X6090Y6388D1*
X6162Y6412D1*
X6209D1*
X6281Y6388D1*
X6329Y6340D1*
X6353Y6269D1*
Y6197D1*
X6329Y6125D1*
X6305Y6102D1*
X6257Y6077D1*
X6970Y8321D2*
X6922Y8297D1*
X6874Y8249D1*
X6850Y8201D1*
Y8106D1*
X6874Y8057D1*
X6922Y8010D1*
X6970Y7986D1*
X7042Y7962D1*
X7162D1*
X7233Y7986D1*
X7281Y8010D1*
X7329Y8057D1*
X7353Y8106D1*
Y8201D1*
X7329Y8249D1*
X7281Y8297D1*
X7233Y8321D1*
X7353Y8571D2*
X6851Y8810D1*
Y8475D1*
X8923Y7404D2*
X8899Y7452D1*
X8851Y7500D1*
X8804Y7524D1*
X8708D1*
X8660Y7500D1*
X8613Y7452D1*
X8588Y7404D1*
X8564Y7332D1*
Y7212D1*
X8588Y7141D1*
X8613Y7093D1*
X8660Y7045D1*
X8708Y7021D1*
X8804D1*
X8851Y7045D1*
X8899Y7093D1*
X8923Y7141D1*
X9197Y7523D2*
X9126Y7499D1*
X9101Y7452D1*
Y7404D1*
X9126Y7356D1*
X9173Y7332D1*
X9269Y7308D1*
X9341Y7284D1*
X9388Y7236D1*
X9412Y7189D1*
Y7117D1*
X9388Y7069D1*
X9364Y7045D1*
X9293Y7021D1*
X9197D1*
X9126Y7045D1*
X9101Y7069D1*
X9078Y7117D1*
Y7189D1*
X9101Y7236D1*
X9149Y7284D1*
X9221Y7308D1*
X9316Y7332D1*
X9364Y7356D1*
X9388Y7404D1*
Y7452D1*
X9364Y7499D1*
X9293Y7523D1*
X9197D1*
X9935Y11904D2*
X9911Y11952D1*
X9863Y12000D1*
X9815Y12024D1*
X9720D1*
X9672Y12000D1*
X9624Y11952D1*
X9600Y11904D1*
X9576Y11832D1*
Y11712D1*
X9600Y11641D1*
X9624Y11593D1*
X9672Y11545D1*
X9720Y11521D1*
X9815D1*
X9863Y11545D1*
X9911Y11593D1*
X9935Y11641D1*
X10400Y11856D2*
X10376Y11784D1*
X10328Y11736D1*
X10257Y11712D1*
X10233D1*
X10161Y11736D1*
X10113Y11784D1*
X10089Y11856D1*
Y11880D1*
X10113Y11952D1*
X10161Y11999D1*
X10233Y12023D1*
X10257D1*
X10328Y11999D1*
X10376Y11952D1*
X10400Y11856D1*
Y11736D1*
X10376Y11617D1*
X10328Y11545D1*
X10257Y11521D1*
X10209D1*
X10137Y11545D1*
X10113Y11593D1*
X6970Y11183D2*
X6922Y11160D1*
X6874Y11112D1*
X6850Y11064D1*
Y10968D1*
X6874Y10920D1*
X6922Y10873D1*
X6970Y10848D1*
X7042Y10825D1*
X7162D1*
X7233Y10848D1*
X7281Y10873D1*
X7329Y10920D1*
X7353Y10968D1*
Y11064D1*
X7329Y11112D1*
X7281Y11160D1*
X7233Y11183D1*
X6947Y11338D2*
X6922Y11386D1*
X6851Y11458D1*
X7353D1*
X6851Y11756D2*
X6875Y11684D1*
X6947Y11636D1*
X7066Y11612D1*
X7138D1*
X7257Y11636D1*
X7329Y11684D1*
X7353Y11756D1*
Y11803D1*
X7329Y11875D1*
X7257Y11923D1*
X7138Y11947D1*
X7066D1*
X6947Y11923D1*
X6875Y11875D1*
X6851Y11803D1*
Y11756D1*
X6947Y11923D2*
X7257Y11636D1*
X6132Y23567D2*
Y23064D1*
X6300D1*
X6372Y23089D1*
X6420Y23136D1*
X6444Y23184D1*
X6467Y23256D1*
Y23376D1*
X6444Y23447D1*
X6420Y23495D1*
X6372Y23543D1*
X6300Y23567D1*
X6132D1*
X6622Y23471D2*
X6670Y23495D1*
X6742Y23566D1*
Y23064D1*
X9025Y23567D2*
Y23064D1*
X9192D1*
X9264Y23089D1*
X9312Y23136D1*
X9336Y23184D1*
X9360Y23256D1*
Y23376D1*
X9336Y23447D1*
X9312Y23495D1*
X9264Y23543D1*
X9192Y23567D1*
X9025D1*
X9539Y23447D2*
Y23471D1*
X9562Y23519D1*
X9586Y23542D1*
X9634Y23566D1*
X9730D1*
X9777Y23542D1*
X9801Y23519D1*
X9825Y23471D1*
Y23423D1*
X9801Y23375D1*
X9754Y23304D1*
X9514Y23064D1*
X9849D1*
X5350Y16076D2*
X5853D1*
Y16244D1*
X5829Y16315D1*
X5781Y16363D1*
X5733Y16387D1*
X5662Y16411D1*
X5542D1*
X5470Y16387D1*
X5422Y16363D1*
X5374Y16315D1*
X5350Y16244D1*
Y16076D1*
X5351Y16613D2*
Y16876D1*
X5542Y16733D1*
Y16805D1*
X5566Y16852D1*
X5590Y16876D1*
X5662Y16900D1*
X5709D1*
X5781Y16876D1*
X5829Y16828D1*
X5853Y16757D1*
Y16685D1*
X5829Y16613D1*
X5805Y16590D1*
X5757Y16565D1*
X6850Y16064D2*
X7353D1*
Y16232D1*
X7329Y16303D1*
X7281Y16352D1*
X7233Y16375D1*
X7162Y16399D1*
X7042D1*
X6970Y16375D1*
X6922Y16352D1*
X6874Y16303D1*
X6850Y16232D1*
Y16064D1*
X7353Y16793D2*
X6851D1*
X7185Y16554D1*
Y16912D1*
X12076Y14024D2*
Y13521D1*
X12244D1*
X12315Y13545D1*
X12363Y13593D1*
X12387Y13641D1*
X12411Y13712D1*
Y13832D1*
X12387Y13904D1*
X12363Y13952D1*
X12315Y14000D1*
X12244Y14024D1*
X12076D1*
X12852Y14023D2*
X12613D1*
X12590Y13808D1*
X12613Y13832D1*
X12685Y13856D1*
X12757D1*
X12828Y13832D1*
X12877Y13784D1*
X12900Y13712D1*
Y13665D1*
X12877Y13593D1*
X12828Y13545D1*
X12757Y13521D1*
X12685D1*
X12613Y13545D1*
X12590Y13569D1*
X12565Y13617D1*
X10090Y15684D2*
Y15899D1*
X10065Y15970D1*
X10042Y15995D1*
X9994Y16018D1*
X9946D1*
X9899Y15995D1*
X9874Y15970D1*
X9850Y15899D1*
Y15684D1*
X10353D1*
X10090Y15851D2*
X10353Y16018D1*
X9947Y16173D2*
X9922Y16221D1*
X9851Y16293D1*
X10353D1*
X20590Y9974D2*
Y10189D1*
X20565Y10261D1*
X20542Y10285D1*
X20494Y10309D1*
X20446D1*
X20399Y10285D1*
X20374Y10261D1*
X20350Y10189D1*
Y9974D1*
X20853D1*
X20590Y10141D2*
X20853Y10309D1*
X20470Y10487D2*
X20447D1*
X20399Y10511D1*
X20375Y10535D1*
X20351Y10583D1*
Y10679D1*
X20375Y10726D1*
X20399Y10750D1*
X20447Y10774D1*
X20494D1*
X20542Y10750D1*
X20614Y10702D1*
X20853Y10463D1*
Y10798D1*
X24641Y12025D2*
Y12240D1*
X24617Y12312D1*
X24593Y12336D1*
X24545Y12360D1*
X24497D1*
X24450Y12336D1*
X24425Y12312D1*
X24402Y12240D1*
Y12025D1*
X24904D1*
X24641Y12192D2*
X24904Y12360D1*
X24402Y12562D2*
Y12825D1*
X24593Y12682D1*
Y12754D1*
X24617Y12801D1*
X24641Y12825D1*
X24713Y12849D1*
X24760D1*
X24832Y12825D1*
X24880Y12777D1*
X24904Y12705D1*
Y12634D1*
X24880Y12562D1*
X24856Y12539D1*
X24808Y12514D1*
X20462Y6784D2*
X20677D1*
X20749Y6809D1*
X20773Y6832D1*
X20797Y6880D1*
Y6928D1*
X20773Y6975D1*
X20749Y7000D1*
X20677Y7024D1*
X20462D1*
Y6521D1*
X20629Y6784D2*
X20797Y6521D1*
X21190D2*
Y7023D1*
X20951Y6689D1*
X21310D1*
X23576Y6784D2*
X23791D1*
X23863Y6809D1*
X23887Y6832D1*
X23911Y6880D1*
Y6928D1*
X23887Y6975D1*
X23863Y7000D1*
X23791Y7024D1*
X23576D1*
Y6521D1*
X23744Y6784D2*
X23911Y6521D1*
X24352Y7023D2*
X24113D1*
X24090Y6808D1*
X24113Y6832D1*
X24185Y6856D1*
X24257D1*
X24328Y6832D1*
X24377Y6784D1*
X24400Y6712D1*
Y6665D1*
X24377Y6593D1*
X24328Y6545D1*
X24257Y6521D1*
X24185D1*
X24113Y6545D1*
X24090Y6569D1*
X24065Y6617D1*
X9588Y13784D2*
X9803D1*
X9875Y13809D1*
X9899Y13832D1*
X9923Y13880D1*
Y13928D1*
X9899Y13975D1*
X9875Y14000D1*
X9803Y14024D1*
X9588D1*
Y13521D1*
X9756Y13784D2*
X9923Y13521D1*
X10364Y13952D2*
X10341Y13999D1*
X10269Y14023D1*
X10221D1*
X10149Y13999D1*
X10101Y13927D1*
X10078Y13808D1*
Y13689D1*
X10101Y13593D1*
X10149Y13545D1*
X10221Y13521D1*
X10245D1*
X10316Y13545D1*
X10364Y13593D1*
X10388Y13665D1*
Y13689D1*
X10364Y13760D1*
X10316Y13808D1*
X10245Y13832D1*
X10221D1*
X10149Y13808D1*
X10101Y13760D1*
X10078Y13689D1*
X21090Y15576D2*
Y15791D1*
X21065Y15863D1*
X21042Y15887D1*
X20994Y15911D1*
X20946D1*
X20899Y15887D1*
X20874Y15863D1*
X20850Y15791D1*
Y15576D1*
X21353D1*
X21090Y15744D2*
X21353Y15911D1*
Y16161D2*
X20851Y16400D1*
Y16065D1*
X21090Y13076D2*
Y13291D1*
X21065Y13363D1*
X21042Y13388D1*
X20994Y13411D1*
X20946D1*
X20899Y13388D1*
X20874Y13363D1*
X20850Y13291D1*
Y13076D1*
X21353D1*
X21090Y13244D2*
X21353Y13411D1*
X20851Y13685D2*
X20875Y13614D1*
X20922Y13589D1*
X20970D1*
X21018Y13614D1*
X21042Y13661D1*
X21066Y13757D1*
X21090Y13829D1*
X21138Y13876D1*
X21185Y13900D1*
X21257D1*
X21305Y13876D1*
X21329Y13853D1*
X21353Y13781D1*
Y13685D1*
X21329Y13614D1*
X21305Y13589D1*
X21257Y13566D1*
X21185D1*
X21138Y13589D1*
X21090Y13638D1*
X21066Y13709D1*
X21042Y13804D1*
X21018Y13853D1*
X20970Y13876D1*
X20922D1*
X20875Y13853D1*
X20851Y13781D1*
Y13685D1*
X7088Y13784D2*
X7303D1*
X7375Y13809D1*
X7399Y13832D1*
X7423Y13880D1*
Y13928D1*
X7399Y13975D1*
X7375Y14000D1*
X7303Y14024D1*
X7088D1*
Y13521D1*
X7255Y13784D2*
X7423Y13521D1*
X7888Y13856D2*
X7864Y13784D1*
X7817Y13736D1*
X7745Y13712D1*
X7721D1*
X7649Y13736D1*
X7602Y13784D1*
X7577Y13856D1*
Y13880D1*
X7602Y13952D1*
X7649Y13999D1*
X7721Y14023D1*
X7745D1*
X7817Y13999D1*
X7864Y13952D1*
X7888Y13856D1*
Y13736D1*
X7864Y13617D1*
X7817Y13545D1*
X7745Y13521D1*
X7697D1*
X7625Y13545D1*
X7602Y13593D1*
X5090Y18337D2*
Y18552D1*
X5065Y18623D1*
X5042Y18648D1*
X4994Y18671D1*
X4946D1*
X4899Y18648D1*
X4874Y18623D1*
X4850Y18552D1*
Y18337D1*
X5353D1*
X5090Y18504D2*
X5353Y18671D1*
X4947Y18826D2*
X4922Y18874D1*
X4851Y18946D1*
X5353D1*
X4851Y19244D2*
X4875Y19172D1*
X4947Y19124D1*
X5066Y19100D1*
X5138D1*
X5257Y19124D1*
X5329Y19172D1*
X5353Y19244D1*
Y19291D1*
X5329Y19363D1*
X5257Y19411D1*
X5138Y19435D1*
X5066D1*
X4947Y19411D1*
X4875Y19363D1*
X4851Y19291D1*
Y19244D1*
X4947Y19411D2*
X5257Y19124D1*
X6590Y18444D2*
Y18659D1*
X6565Y18731D1*
X6542Y18755D1*
X6494Y18779D1*
X6446D1*
X6399Y18755D1*
X6374Y18731D1*
X6350Y18659D1*
Y18444D1*
X6853D1*
X6590Y18612D2*
X6853Y18779D1*
X6447Y18933D2*
X6422Y18981D1*
X6351Y19053D1*
X6853D1*
X6447Y19208D2*
X6422Y19256D1*
X6351Y19328D1*
X6853D1*
X9590Y18337D2*
Y18552D1*
X9565Y18623D1*
X9542Y18648D1*
X9494Y18671D1*
X9446D1*
X9399Y18648D1*
X9374Y18623D1*
X9350Y18552D1*
Y18337D1*
X9853D1*
X9590Y18504D2*
X9853Y18671D1*
X9447Y18826D2*
X9422Y18874D1*
X9351Y18946D1*
X9853D1*
X9470Y19125D2*
X9447D1*
X9399Y19148D1*
X9375Y19172D1*
X9351Y19220D1*
Y19316D1*
X9375Y19363D1*
X9399Y19387D1*
X9447Y19411D1*
X9494D1*
X9542Y19387D1*
X9614Y19340D1*
X9853Y19100D1*
Y19435D1*
X8090Y18337D2*
Y18552D1*
X8065Y18623D1*
X8042Y18648D1*
X7994Y18671D1*
X7946D1*
X7899Y18648D1*
X7874Y18623D1*
X7850Y18552D1*
Y18337D1*
X8353D1*
X8090Y18504D2*
X8353Y18671D1*
X7947Y18826D2*
X7922Y18874D1*
X7851Y18946D1*
X8353D1*
X7851Y19148D2*
Y19411D1*
X8042Y19268D1*
Y19340D1*
X8066Y19387D1*
X8090Y19411D1*
X8162Y19435D1*
X8209D1*
X8281Y19411D1*
X8329Y19363D1*
X8353Y19291D1*
Y19220D1*
X8329Y19148D1*
X8305Y19125D1*
X8257Y19100D1*
X22927Y19784D2*
X23142D1*
X23214Y19809D1*
X23238Y19832D1*
X23262Y19880D1*
Y19928D1*
X23238Y19975D1*
X23214Y20000D1*
X23142Y20024D1*
X22927D1*
Y19521D1*
X23094Y19784D2*
X23262Y19521D1*
X23416Y19927D2*
X23464Y19952D1*
X23536Y20023D1*
Y19521D1*
X23930D2*
Y20023D1*
X23691Y19689D1*
X24049D1*
X25590Y19849D2*
Y20064D1*
X25565Y20136D1*
X25542Y20160D1*
X25494Y20184D1*
X25446D1*
X25399Y20160D1*
X25374Y20136D1*
X25350Y20064D1*
Y19849D1*
X25853D1*
X25590Y20016D2*
X25853Y20184D1*
X25447Y20338D2*
X25422Y20386D1*
X25351Y20458D1*
X25853D1*
X25422Y20899D2*
X25375Y20875D1*
X25351Y20804D1*
Y20756D1*
X25375Y20684D1*
X25447Y20636D1*
X25566Y20612D1*
X25685D1*
X25781Y20636D1*
X25829Y20684D1*
X25853Y20756D1*
Y20780D1*
X25829Y20851D1*
X25781Y20899D1*
X25709Y20923D1*
X25685D1*
X25614Y20899D1*
X25566Y20851D1*
X25542Y20780D1*
Y20756D1*
X25566Y20684D1*
X25614Y20636D1*
X25685Y20612D1*
X24590Y19837D2*
Y20052D1*
X24565Y20123D1*
X24542Y20148D1*
X24494Y20171D1*
X24446D1*
X24399Y20148D1*
X24374Y20123D1*
X24350Y20052D1*
Y19837D1*
X24853D1*
X24590Y20004D2*
X24853Y20171D1*
X24447Y20326D2*
X24422Y20374D1*
X24351Y20446D1*
X24853D1*
Y20696D2*
X24351Y20935D1*
Y20600D1*
X8590Y15337D2*
Y15552D1*
X8565Y15624D1*
X8542Y15648D1*
X8494Y15672D1*
X8446D1*
X8399Y15648D1*
X8374Y15624D1*
X8350Y15552D1*
Y15337D1*
X8853D1*
X8590Y15504D2*
X8853Y15672D1*
X8447Y15826D2*
X8422Y15874D1*
X8351Y15946D1*
X8853D1*
X8351Y16220D2*
X8375Y16149D1*
X8422Y16124D1*
X8470D1*
X8518Y16149D1*
X8542Y16196D1*
X8566Y16292D1*
X8590Y16364D1*
X8638Y16411D1*
X8685Y16435D1*
X8757D1*
X8805Y16411D1*
X8829Y16387D1*
X8853Y16315D1*
Y16220D1*
X8829Y16149D1*
X8805Y16124D1*
X8757Y16100D1*
X8685D1*
X8638Y16124D1*
X8590Y16172D1*
X8566Y16244D1*
X8542Y16339D1*
X8518Y16387D1*
X8470Y16411D1*
X8422D1*
X8375Y16387D1*
X8351Y16315D1*
Y16220D1*
X25778Y18139D2*
X25731Y18187D1*
X25659Y18211D1*
X25563D1*
X25491Y18187D1*
X25443Y18139D1*
Y18091D1*
X25468Y18043D1*
X25491Y18019D1*
X25539Y17996D1*
X25683Y17947D1*
X25731Y17924D1*
X25755Y17899D1*
X25778Y17852D1*
Y17780D1*
X25731Y17732D1*
X25659Y17708D1*
X25563D1*
X25491Y17732D1*
X25443Y17780D1*
X25933Y18114D2*
X25981Y18139D1*
X26053Y18210D1*
Y17708D1*
X15735Y18311D2*
Y17952D1*
X15759Y17880D1*
X15807Y17833D1*
X15878Y17809D1*
X15926D1*
X15998Y17833D1*
X16046Y17880D1*
X16070Y17952D1*
Y18311D1*
X16224Y18215D2*
X16272Y18239D1*
X16344Y18310D1*
Y17809D1*
X16025Y12465D2*
Y12106D1*
X16049Y12034D1*
X16097Y11986D1*
X16169Y11962D1*
X16216D1*
X16288Y11986D1*
X16336Y12034D1*
X16360Y12106D1*
Y12465D1*
X16539Y12345D2*
Y12368D1*
X16562Y12416D1*
X16586Y12440D1*
X16634Y12464D1*
X16730D1*
X16777Y12440D1*
X16801Y12416D1*
X16825Y12368D1*
Y12321D1*
X16801Y12273D1*
X16754Y12201D1*
X16514Y11962D1*
X16849D1*
X15525Y22965D2*
Y22606D1*
X15549Y22534D1*
X15597Y22486D1*
X15669Y22462D1*
X15716D1*
X15788Y22486D1*
X15836Y22534D1*
X15860Y22606D1*
Y22965D1*
X16062Y22964D2*
X16325D1*
X16182Y22773D1*
X16254D1*
X16301Y22749D1*
X16325Y22725D1*
X16349Y22653D1*
Y22606D1*
X16325Y22534D1*
X16277Y22486D1*
X16205Y22462D1*
X16134D1*
X16062Y22486D1*
X16039Y22510D1*
X16014Y22558D1*
X16422Y7563D2*
Y7204D1*
X16446Y7132D1*
X16494Y7085D1*
X16566Y7061D1*
X16614D1*
X16686Y7085D1*
X16734Y7132D1*
X16757Y7204D1*
Y7563D1*
X17151Y7061D2*
Y7562D1*
X16912Y7228D1*
X17270D1*
X14115Y24850D2*
Y24492D1*
X14139Y24420D1*
X14187Y24372D1*
X14259Y24348D1*
X14307D1*
X14379Y24372D1*
X14427Y24420D1*
X14450Y24492D1*
Y24850D1*
X14892D2*
X14653D1*
X14629Y24635D1*
X14653Y24659D1*
X14725Y24683D1*
X14796D1*
X14868Y24659D1*
X14916Y24611D1*
X14940Y24539D1*
Y24492D1*
X14916Y24420D1*
X14868Y24372D1*
X14796Y24348D1*
X14725D1*
X14653Y24372D1*
X14629Y24396D1*
X14605Y24444D1*
X9481Y10055D2*
Y9696D1*
X9505Y9624D1*
X9553Y9577D1*
X9625Y9552D1*
X9672D1*
X9744Y9577D1*
X9792Y9624D1*
X9816Y9696D1*
Y10055D1*
X10257Y9983D2*
X10233Y10030D1*
X10162Y10054D1*
X10114D1*
X10042Y10030D1*
X9994Y9959D1*
X9970Y9839D1*
Y9720D1*
X9994Y9624D1*
X10042Y9576D1*
X10114Y9552D1*
X10138D1*
X10209Y9576D1*
X10257Y9624D1*
X10281Y9696D1*
Y9720D1*
X10257Y9792D1*
X10209Y9839D1*
X10138Y9863D1*
X10114D1*
X10042Y9839D1*
X9994Y9792D1*
X9970Y9720D1*
X12167Y8130D2*
Y7771D1*
X12190Y7699D1*
X12238Y7651D1*
X12310Y7627D1*
X12358D1*
X12430Y7651D1*
X12478Y7699D1*
X12502Y7771D1*
Y8130D1*
X12752Y7627D2*
X12991Y8129D1*
X12656D1*
X4805Y8025D2*
X5163D1*
X5235Y8049D1*
X5283Y8097D1*
X5307Y8169D1*
Y8216D1*
X5283Y8288D1*
X5235Y8336D1*
X5163Y8360D1*
X4805D1*
Y8634D2*
X4829Y8563D1*
X4877Y8538D1*
X4925D1*
X4972Y8563D1*
X4997Y8610D1*
X5020Y8706D1*
X5044Y8778D1*
X5092Y8825D1*
X5140Y8849D1*
X5212D1*
X5259Y8825D1*
X5283Y8801D1*
X5307Y8729D1*
Y8634D1*
X5283Y8563D1*
X5259Y8538D1*
X5212Y8514D1*
X5140D1*
X5092Y8538D1*
X5044Y8586D1*
X5020Y8658D1*
X4997Y8753D1*
X4972Y8801D1*
X4925Y8825D1*
X4877D1*
X4829Y8801D1*
X4805Y8729D1*
Y8634D1*
Y11037D2*
X5163D1*
X5235Y11061D1*
X5283Y11109D1*
X5307Y11180D1*
Y11228D1*
X5283Y11300D1*
X5235Y11348D1*
X5163Y11372D1*
X4805D1*
X4972Y11837D2*
X5044Y11813D1*
X5092Y11765D1*
X5116Y11694D1*
Y11670D1*
X5092Y11598D1*
X5044Y11550D1*
X4972Y11526D1*
X4948D1*
X4877Y11550D1*
X4829Y11598D1*
X4805Y11670D1*
Y11694D1*
X4829Y11765D1*
X4877Y11813D1*
X4972Y11837D1*
X5092D1*
X5212Y11813D1*
X5283Y11765D1*
X5307Y11694D1*
Y11646D1*
X5283Y11574D1*
X5235Y11550D1*
X20781Y22937D2*
Y22578D1*
X20805Y22506D1*
X20853Y22459D1*
X20925Y22435D1*
X20973D1*
X21045Y22459D1*
X21093Y22506D1*
X21116Y22578D1*
Y22937D1*
X21271Y22841D2*
X21319Y22865D1*
X21391Y22936D1*
Y22435D1*
X21689Y22936D2*
X21617Y22913D1*
X21569Y22841D1*
X21545Y22721D1*
Y22650D1*
X21569Y22530D1*
X21617Y22458D1*
X21689Y22435D1*
X21736D1*
X21808Y22458D1*
X21856Y22530D1*
X21880Y22650D1*
Y22721D1*
X21856Y22841D1*
X21808Y22913D1*
X21736Y22936D1*
X21689D1*
X21856Y22841D2*
X21569Y22530D1*
X23405Y23779D2*
Y23421D1*
X23429Y23349D1*
X23477Y23301D1*
X23549Y23277D1*
X23596D1*
X23668Y23301D1*
X23716Y23349D1*
X23740Y23421D1*
Y23779D1*
X23895Y23683D2*
X23943Y23707D1*
X24014Y23779D1*
Y23277D1*
X24169Y23683D2*
X24217Y23707D1*
X24289Y23779D1*
Y23277D1*
X22888Y12169D2*
Y11811D1*
X22911Y11739D1*
X22960Y11691D1*
X23031Y11667D1*
X23079D1*
X23151Y11691D1*
X23199Y11739D1*
X23223Y11811D1*
Y12169D1*
X23377Y12073D2*
X23425Y12097D1*
X23497Y12169D1*
Y11667D1*
X23676Y12049D2*
Y12073D1*
X23699Y12121D1*
X23723Y12145D1*
X23771Y12169D1*
X23867D1*
X23914Y12145D1*
X23938Y12121D1*
X23963Y12073D1*
Y12026D1*
X23938Y11977D1*
X23891Y11906D1*
X23651Y11667D1*
X23986D1*
X20109Y18169D2*
X20300Y17930D1*
Y17667D1*
X20491Y18169D2*
X20300Y17930D1*
X20645Y18073D2*
X20694Y18097D1*
X20765Y18169D1*
Y17667D1*
M02*
