M48
INCH
T01C0.019
T02C0.0276
T03C0.028
T04C0.032
T05C0.0354
T06C0.0433
T07C0.045
%
T01
X+019437Y+017437
X+019108Y+016758
X+018348Y+015352
X+018937Y+014488
X+019488Y+014017
X+016892Y+014592
X+016512Y+015732
X+017032Y+016035
X+015538Y+014972
X+015040Y+016415
X+012912Y+015748
X+010937Y+017437
X+013437Y+019552
X+015912Y+023437
X+017912Y+021222
X+019937Y+020437
X+020937Y+018937
X+021643Y+018700
X+021263Y+017138
X+022611Y+016337
X+022611Y+012835
X+022437Y+011937
X+021437Y+007422
X+015502Y+011912
X+011174Y+012937
X+004937Y+014437
X+024419Y+019835
X+026437Y+018960
T02
X+020937Y+021437
X+020937Y+020650
X+020937Y+019862
X+021724Y+019862
X+021724Y+020650
X+021724Y+021437
T03
X+006437Y+021335
X+006437Y+022335
X+009437Y+022335
X+009437Y+021335
T04
X+020437Y+014437
X+020437Y+016337
T05
X+012937Y+008437
X+013937Y+008437
X+014937Y+008437
X+015937Y+008437
X+016937Y+008437
X+017937Y+008437
X+018937Y+008437
X+019937Y+008437
X+019937Y+011437
X+018937Y+011437
X+017937Y+011437
X+016937Y+011437
X+015937Y+011437
X+014937Y+011437
X+013937Y+011437
X+012937Y+011437
X+016650Y+006437
X+017437Y+006437
X+017043Y+005650
X+016256Y+005650
X+016437Y+018937
X+017437Y+018937
X+018437Y+018937
X+019437Y+018937
X+019437Y+021937
X+018437Y+021937
X+017437Y+021937
X+016437Y+021937
X+015437Y+021937
X+014437Y+021937
X+013437Y+021937
X+012437Y+021937
X+013937Y+022937
X+014724Y+022937
X+014331Y+023724
X+015118Y+023724
X+015437Y+018937
X+014437Y+018937
X+013437Y+018937
X+012437Y+018937
T06
X+023937Y+007937
X+022937Y+007937
X+022937Y+008937
X+023937Y+008937
X+023937Y+009937
X+022937Y+009937
X+022937Y+010937
X+023937Y+010937
T07
X+005937Y+007937
X+005937Y+008937
X+005937Y+010937
X+005937Y+011937
T00
M30
