<?xml version="1.0" standalone="no"?>
<!DOCTYPE svg PUBLIC "-//W3C//DTD SVG 20010904//EN"
 "http://www.w3.org/TR/2001/REC-SVG-20010904/DTD/svg10.dtd">
<svg version="1.0" xmlns="http://www.w3.org/2000/svg"
 width="87.000000pt" height="99.000000pt" viewBox="0 0 87.000000 99.000000"
 preserveAspectRatio="xMidYMid meet">
<metadata>
Created by potrace 1.11, written by Peter Selinger 2001-2013
</metadata>
<g transform="translate(0.000000,99.000000) scale(0.100000,-0.100000)"
fill="#000000" stroke="none">
<path d="M296 854 c-3 -9 -6 -83 -6 -165 0 -82 -3 -149 -6 -149 -4 0 -29 23
-56 50 -27 28 -58 50 -69 50 -18 0 -19 -8 -19 -139 l0 -139 131 -131 c71 -72
132 -131 135 -131 3 0 66 60 140 134 l134 134 0 136 c0 131 -1 136 -21 136
-12 0 -44 -22 -72 -50 -28 -28 -55 -50 -59 -50 -4 0 -8 67 -8 149 0 82 -3 156
-6 165 -9 24 -209 24 -218 0z"/>
</g>
</svg>
