<?xml version="1.0" standalone="no"?>
<!DOCTYPE svg PUBLIC "-//W3C//DTD SVG 20010904//EN"
 "http://www.w3.org/TR/2001/REC-SVG-20010904/DTD/svg10.dtd">
<svg version="1.0" xmlns="http://www.w3.org/2000/svg"
 width="104.000000pt" height="104.000000pt" viewBox="0 0 104.000000 104.000000"
 preserveAspectRatio="xMidYMid meet">
<metadata>
Created by potrace 1.11, written by Peter Selinger 2001-2013
</metadata>
<g transform="translate(0.000000,104.000000) scale(0.100000,-0.100000)"
fill="#000000" stroke="none">
<path d="M470 940 c-8 -5 -23 -10 -33 -10 -44 0 -129 -52 -193 -117 -46 -47
-68 -63 -73 -54 -12 19 -91 27 -91 10 0 -7 14 -70 30 -139 53 -219 50 -210 75
-210 12 0 28 7 35 15 7 8 19 15 26 15 8 0 14 5 14 10 0 6 6 10 14 10 8 0 21 6
28 13 8 6 23 17 33 23 55 30 70 40 83 52 7 6 18 12 23 12 5 0 20 9 32 21 l22
20 -25 19 c-14 11 -29 20 -35 20 -5 0 -17 5 -25 10 -13 8 -12 12 7 29 12 11
33 23 47 27 15 3 29 10 32 15 18 30 144 -5 197 -55 32 -30 67 -106 67 -147 0
-61 -70 -179 -106 -179 -7 0 -14 -6 -16 -12 -3 -9 -30 -13 -88 -13 -58 0 -85
4 -87 13 -3 6 -11 12 -18 12 -8 0 -29 16 -48 35 -19 19 -38 35 -43 35 -10 0
-109 -66 -139 -93 -19 -17 -19 -18 -1 -49 10 -17 26 -38 36 -48 27 -27 103
-77 130 -85 14 -4 31 -13 39 -19 18 -14 220 -15 252 0 169 75 238 149 284 299
61 204 -73 443 -285 505 -58 17 -181 23 -200 10z"/>
</g>
</svg>
