<?xml version="1.0" standalone="no"?>
<!DOCTYPE svg PUBLIC "-//W3C//DTD SVG 20010904//EN"
 "http://www.w3.org/TR/2001/REC-SVG-20010904/DTD/svg10.dtd">
<svg version="1.0" xmlns="http://www.w3.org/2000/svg"
 width="104.000000pt" height="104.000000pt" viewBox="0 0 104.000000 104.000000"
 preserveAspectRatio="xMidYMid meet">
<metadata>
Created by potrace 1.11, written by Peter Selinger 2001-2013
</metadata>
<g transform="translate(0.000000,104.000000) scale(0.100000,-0.100000)"
fill="#000000" stroke="none">
<path d="M410 941 c-8 -5 -30 -12 -49 -16 -47 -10 -127 -61 -176 -111 -97 -99
-138 -261 -100 -389 46 -150 115 -224 284 -299 32 -15 234 -14 252 0 8 6 25
15 39 19 27 8 103 58 130 85 10 10 26 31 36 48 18 31 18 32 -1 49 -30 27 -129
93 -139 93 -5 0 -24 -16 -43 -35 -19 -19 -40 -35 -48 -35 -7 0 -15 -6 -17 -12
-3 -9 -30 -13 -88 -13 -58 0 -85 4 -87 13 -3 6 -10 12 -17 12 -36 0 -106 118
-106 179 0 41 35 117 67 147 53 50 179 85 197 55 3 -5 17 -12 32 -15 14 -4 35
-16 47 -27 19 -17 20 -21 7 -29 -8 -5 -19 -10 -25 -10 -5 0 -21 -9 -35 -20
l-25 -19 22 -20 c12 -12 27 -21 32 -21 5 0 16 -6 23 -12 8 -7 24 -19 36 -25
12 -7 32 -19 44 -25 12 -7 28 -19 36 -26 7 -6 20 -12 28 -12 8 0 14 -4 14 -10
0 -5 6 -10 14 -10 7 0 19 -7 26 -15 7 -8 23 -15 35 -15 25 0 22 -9 75 210 16
69 30 132 30 139 0 17 -79 9 -91 -10 -5 -9 -27 7 -73 54 -92 93 -166 126 -301
134 -38 2 -77 -1 -85 -6z"/>
</g>
</svg>
