G04 DipTrace Beta 2.3.9.1*
%INBottom.gbr*%
%MOIN*%
%ADD13C,0.012*%
%ADD14C,0.025*%
%ADD17C,0.05*%
%ADD18R,0.05X0.05*%
%ADD25R,0.0591X0.0591*%
%ADD26C,0.0591*%
%ADD27C,0.0591*%
%ADD32C,0.08*%
%ADD33R,0.0512X0.0512*%
%ADD34C,0.0512*%
%ADD36R,0.0669X0.0669*%
%ADD37C,0.0669*%
%ADD38C,0.048*%
%ADD39C,0.04*%
%FSLAX44Y44*%
G04*
G70*
G90*
G75*
G01*
%LNBottom*%
%LPD*%
X23937Y8937D2*
D13*
X24692Y8182D1*
Y7662D1*
X24452Y7422D1*
X21437D1*
X19937Y8437D2*
Y11437D1*
X11174Y12937D2*
X13589Y15352D1*
X16792D1*
X17032Y15592D1*
Y16035D1*
X21263Y17138D2*
X21643Y17518D1*
Y18700D1*
X20937Y21437D2*
X21373Y21873D1*
X21920D1*
X22160Y21633D1*
Y16998D1*
X23697D1*
X23937Y16758D1*
Y10937D1*
X22160Y16998D2*
X21920Y16758D1*
X19108D1*
X12937Y8437D2*
Y11437D1*
X17937Y8437D2*
Y5890D1*
X17697Y5650D1*
X17043D1*
X17937Y11437D2*
X17412Y10912D1*
Y8103D1*
X16650Y7340D1*
Y6437D1*
X14937Y11437D2*
X15412Y10962D1*
Y6493D1*
X16256Y5650D1*
X14437Y18937D2*
X13937Y19437D1*
Y22937D1*
X17437Y18937D2*
X16912Y19462D1*
Y23960D1*
X16672Y24200D1*
X14806D1*
X14331Y23724D1*
X14437Y21937D2*
X15280Y22780D1*
Y23563D1*
X15118Y23724D1*
X19437Y21937D2*
Y18937D1*
X15912Y23437D2*
Y22412D1*
X15437Y21937D1*
X12437D2*
Y18937D1*
X15502Y11912D2*
X18172D1*
X18412Y11672D1*
Y8962D1*
X18937Y8437D1*
Y14488D2*
Y11437D1*
X16892Y14592D2*
Y13285D1*
X16652Y13045D1*
X15545D1*
X13937Y11437D1*
X16512Y15732D2*
X13677D1*
X13437Y15972D1*
Y18937D1*
X18348Y15352D2*
X18437Y15441D1*
Y18937D1*
X17912Y21222D2*
X18437D1*
Y21937D1*
X13437Y19552D2*
Y21937D1*
X20437Y14437D2*
X22039Y12835D1*
X22611D1*
Y16337D2*
X20437D1*
X19488Y15388D1*
Y14017D1*
X20937Y19862D2*
X20862D1*
X20437Y19437D1*
Y18937D1*
X19937Y18437D1*
X19437D1*
X18728Y17728D1*
Y14972D1*
X15538D1*
X15040Y16415D2*
X17672D1*
X17912Y16655D1*
Y19217D1*
X18912Y20217D1*
Y22412D1*
X19152Y22652D1*
X22777D1*
X23017Y22412D1*
Y19200D1*
X23257Y18960D1*
X26437D1*
X12912Y15748D2*
Y24440D1*
X13152Y24680D1*
X24179D1*
X24419Y24440D1*
Y19835D1*
D39*
X19437Y17437D3*
X20937Y18937D3*
X22437Y11937D3*
X4937Y14437D3*
X21437Y7422D3*
X17032Y16035D3*
X11174Y12937D3*
X21643Y18700D3*
X21263Y17138D3*
X19108Y16758D3*
X15912Y23437D3*
X15502Y11912D3*
X18937Y14488D3*
X16892Y14592D3*
X16512Y15732D3*
X18348Y15352D3*
X17912Y21222D3*
X13437Y19552D3*
X22611Y12835D3*
X19488Y14017D3*
X22611Y16337D3*
X15538Y14972D3*
X26437Y18960D3*
X15040Y16415D3*
X24419Y19835D3*
X12912Y15748D3*
X19937Y20437D3*
X10937Y17437D3*
X4587Y25063D2*
D14*
X27289D1*
X4587Y24815D2*
X12805D1*
X24530D2*
X27289D1*
X4587Y24566D2*
X12590D1*
X24745D2*
X27289D1*
X4587Y24317D2*
X12562D1*
X13273D2*
X14437D1*
X17038D2*
X24058D1*
X24769D2*
X27289D1*
X4587Y24069D2*
X12562D1*
X13261D2*
X13863D1*
X17245D2*
X24070D1*
X24769D2*
X27289D1*
X4587Y23820D2*
X12562D1*
X13261D2*
X13754D1*
X16202D2*
X16562D1*
X17261D2*
X24070D1*
X24769D2*
X27289D1*
X4587Y23571D2*
X12562D1*
X13261D2*
X13766D1*
X16382D2*
X16562D1*
X17261D2*
X24070D1*
X24769D2*
X27289D1*
X4587Y23323D2*
X12562D1*
X13261D2*
X13504D1*
X16386D2*
X16562D1*
X17261D2*
X24070D1*
X24769D2*
X27289D1*
X4587Y23074D2*
X12562D1*
X13261D2*
X13371D1*
X16261D2*
X16562D1*
X17261D2*
X24070D1*
X24769D2*
X27289D1*
X4587Y22825D2*
X12562D1*
X13261D2*
X13365D1*
X16261D2*
X16562D1*
X17261D2*
X18840D1*
X23089D2*
X24070D1*
X24769D2*
X27289D1*
X4587Y22576D2*
X12562D1*
X13261D2*
X13484D1*
X16261D2*
X16562D1*
X17261D2*
X18605D1*
X23323D2*
X24070D1*
X24769D2*
X27289D1*
X4587Y22328D2*
X12012D1*
X17862D2*
X18012D1*
X23366D2*
X24070D1*
X24769D2*
X27289D1*
X4587Y22079D2*
X11871D1*
X20003D2*
X21094D1*
X22198D2*
X22668D1*
X23366D2*
X24070D1*
X24769D2*
X27289D1*
X4587Y21830D2*
X6273D1*
X6601D2*
X9273D1*
X9601D2*
X11863D1*
X20011D2*
X20391D1*
X22444D2*
X22668D1*
X23366D2*
X24070D1*
X24769D2*
X27289D1*
X4587Y21582D2*
X5961D1*
X6913D2*
X8961D1*
X9913D2*
X11980D1*
X14894D2*
X14980D1*
X15894D2*
X15980D1*
X19894D2*
X20391D1*
X22511D2*
X22668D1*
X23366D2*
X24070D1*
X24769D2*
X27289D1*
X4587Y21333D2*
X5898D1*
X6976D2*
X8898D1*
X9976D2*
X12086D1*
X14288D2*
X16562D1*
X17261D2*
X17437D1*
X19788D2*
X20391D1*
X22511D2*
X22668D1*
X23366D2*
X24070D1*
X24769D2*
X27289D1*
X4587Y21084D2*
X5961D1*
X6913D2*
X8961D1*
X9913D2*
X12086D1*
X14288D2*
X16562D1*
X17261D2*
X17445D1*
X19788D2*
X20391D1*
X22511D2*
X22668D1*
X23366D2*
X24070D1*
X24769D2*
X27289D1*
X4587Y20836D2*
X6285D1*
X6589D2*
X9285D1*
X9589D2*
X12086D1*
X14288D2*
X16562D1*
X17261D2*
X17629D1*
X18194D2*
X18562D1*
X19788D2*
X20426D1*
X22511D2*
X22668D1*
X23366D2*
X24070D1*
X24769D2*
X27289D1*
X4587Y20587D2*
X12086D1*
X14288D2*
X16562D1*
X17261D2*
X18562D1*
X19788D2*
X20394D1*
X22511D2*
X22668D1*
X23366D2*
X24070D1*
X24769D2*
X27289D1*
X4587Y20338D2*
X12086D1*
X14288D2*
X16562D1*
X17261D2*
X18551D1*
X19788D2*
X20496D1*
X22511D2*
X22668D1*
X23366D2*
X24070D1*
X24769D2*
X27289D1*
X4587Y20090D2*
X12086D1*
X14288D2*
X16562D1*
X17261D2*
X18301D1*
X19788D2*
X20445D1*
X21429D2*
X21812D1*
X22511D2*
X22668D1*
X23366D2*
X24004D1*
X24831D2*
X27289D1*
X4587Y19841D2*
X12086D1*
X14288D2*
X16562D1*
X17261D2*
X18051D1*
X19788D2*
X20355D1*
X21483D2*
X21812D1*
X22511D2*
X22668D1*
X23366D2*
X23930D1*
X24909D2*
X27289D1*
X4587Y19592D2*
X12086D1*
X14288D2*
X16562D1*
X17265D2*
X17805D1*
X18773D2*
X19086D1*
X19788D2*
X20125D1*
X21405D2*
X21812D1*
X22511D2*
X22668D1*
X23366D2*
X23996D1*
X24839D2*
X27289D1*
X4587Y19344D2*
X11851D1*
X14847D2*
X15026D1*
X15847D2*
X16026D1*
X18847D2*
X19026D1*
X19847D2*
X20086D1*
X21005D2*
X21812D1*
X22511D2*
X22668D1*
X23366D2*
X26148D1*
X26726D2*
X27289D1*
X4587Y19095D2*
X11851D1*
X19999D2*
X20086D1*
X20788D2*
X21371D1*
X22511D2*
X22683D1*
X26905D2*
X27289D1*
X4587Y18846D2*
X11851D1*
X20773D2*
X21176D1*
X22511D2*
X22887D1*
X26913D2*
X27289D1*
X4587Y18597D2*
X11851D1*
X20581D2*
X21164D1*
X22511D2*
X26121D1*
X26753D2*
X27289D1*
X4587Y18349D2*
X12562D1*
X13788D2*
X17562D1*
X18788D2*
X18866D1*
X20331D2*
X21293D1*
X22511D2*
X27289D1*
X4587Y18100D2*
X12562D1*
X13788D2*
X17562D1*
X19585D2*
X21293D1*
X22511D2*
X27289D1*
X4587Y17851D2*
X12562D1*
X13788D2*
X17562D1*
X19335D2*
X21293D1*
X22511D2*
X27289D1*
X4587Y17603D2*
X12562D1*
X13788D2*
X17562D1*
X19089D2*
X21230D1*
X22511D2*
X27289D1*
X4587Y17354D2*
X12562D1*
X13788D2*
X17562D1*
X19077D2*
X20828D1*
X22511D2*
X27289D1*
X4587Y17105D2*
X12562D1*
X13788D2*
X17562D1*
X19441D2*
X20773D1*
X24073D2*
X27289D1*
X4587Y16857D2*
X12562D1*
X13788D2*
X14871D1*
X15210D2*
X17562D1*
X24273D2*
X27289D1*
X4587Y16608D2*
X12562D1*
X13788D2*
X14594D1*
X23015D2*
X23586D1*
X24288D2*
X27289D1*
X4587Y16359D2*
X12562D1*
X13788D2*
X14555D1*
X19370D2*
X19906D1*
X23101D2*
X23586D1*
X24288D2*
X27289D1*
X4587Y16111D2*
X12562D1*
X13788D2*
X14664D1*
X17812D2*
X18086D1*
X19077D2*
X19726D1*
X23042D2*
X23586D1*
X24288D2*
X27289D1*
X4587Y15862D2*
X12437D1*
X17487D2*
X18086D1*
X19077D2*
X19476D1*
X20632D2*
X23586D1*
X24288D2*
X27289D1*
X4587Y15613D2*
X12441D1*
X17382D2*
X17937D1*
X19077D2*
X19230D1*
X20198D2*
X23586D1*
X24288D2*
X27289D1*
X4587Y15365D2*
X12625D1*
X17288D2*
X17859D1*
X19948D2*
X23586D1*
X24288D2*
X27289D1*
X4587Y15116D2*
X12867D1*
X19839D2*
X23586D1*
X24288D2*
X27289D1*
X4587Y14867D2*
X12621D1*
X13589D2*
X15062D1*
X19839D2*
X20148D1*
X20726D2*
X23586D1*
X24288D2*
X27289D1*
X4587Y14618D2*
X12371D1*
X13339D2*
X15211D1*
X15866D2*
X16402D1*
X17382D2*
X18465D1*
X19839D2*
X19940D1*
X20933D2*
X23586D1*
X24288D2*
X27289D1*
X4587Y14370D2*
X12121D1*
X13093D2*
X16457D1*
X17323D2*
X18461D1*
X20987D2*
X23586D1*
X24288D2*
X27289D1*
X4587Y14121D2*
X11875D1*
X12843D2*
X16543D1*
X17241D2*
X18586D1*
X21237D2*
X23586D1*
X24288D2*
X27289D1*
X4587Y13872D2*
X11625D1*
X12593D2*
X16543D1*
X17241D2*
X18586D1*
X19956D2*
X20516D1*
X21487D2*
X23586D1*
X24288D2*
X27289D1*
X4587Y13624D2*
X11375D1*
X12347D2*
X16543D1*
X17241D2*
X18586D1*
X19761D2*
X20766D1*
X21733D2*
X23586D1*
X24288D2*
X27289D1*
X4587Y13375D2*
X10992D1*
X12097D2*
X16496D1*
X17241D2*
X18586D1*
X19288D2*
X21016D1*
X21983D2*
X23586D1*
X24288D2*
X27289D1*
X4587Y13126D2*
X10726D1*
X11847D2*
X15141D1*
X17198D2*
X18586D1*
X19288D2*
X21262D1*
X22999D2*
X23586D1*
X24288D2*
X27289D1*
X4587Y12878D2*
X10687D1*
X11659D2*
X14894D1*
X16968D2*
X18586D1*
X19288D2*
X21512D1*
X23101D2*
X23586D1*
X24288D2*
X27289D1*
X4587Y12629D2*
X10801D1*
X11546D2*
X14644D1*
X15612D2*
X18586D1*
X19288D2*
X21762D1*
X23054D2*
X23586D1*
X24288D2*
X27289D1*
X4587Y12380D2*
X5418D1*
X6456D2*
X14394D1*
X15366D2*
X18586D1*
X19288D2*
X22488D1*
X22733D2*
X23586D1*
X24288D2*
X27289D1*
X4587Y12132D2*
X5277D1*
X6597D2*
X14148D1*
X18437D2*
X18586D1*
X19288D2*
X23586D1*
X24288D2*
X27289D1*
X4587Y11883D2*
X5250D1*
X6624D2*
X12574D1*
X13300D2*
X13574D1*
X19300D2*
X19574D1*
X20300D2*
X23586D1*
X24288D2*
X27289D1*
X4587Y11634D2*
X5320D1*
X6554D2*
X12387D1*
X20487D2*
X23586D1*
X24288D2*
X27289D1*
X4587Y11386D2*
X5539D1*
X6335D2*
X12355D1*
X20519D2*
X22516D1*
X23358D2*
X23512D1*
X24358D2*
X27289D1*
X4587Y11137D2*
X12437D1*
X20437D2*
X22348D1*
X24526D2*
X27289D1*
X4587Y10888D2*
X12586D1*
X13288D2*
X13801D1*
X14076D2*
X14801D1*
X16076D2*
X16801D1*
X19076D2*
X19586D1*
X20288D2*
X22316D1*
X24558D2*
X27289D1*
X4587Y10639D2*
X12586D1*
X13288D2*
X15062D1*
X15761D2*
X17062D1*
X17761D2*
X18062D1*
X18761D2*
X19586D1*
X20288D2*
X22391D1*
X24483D2*
X27289D1*
X4587Y10391D2*
X12586D1*
X13288D2*
X15062D1*
X15761D2*
X17062D1*
X17761D2*
X18062D1*
X18761D2*
X19586D1*
X20288D2*
X22519D1*
X24355D2*
X27289D1*
X4587Y10142D2*
X12586D1*
X13288D2*
X15062D1*
X15761D2*
X17062D1*
X17761D2*
X18062D1*
X18761D2*
X19586D1*
X20288D2*
X22348D1*
X24526D2*
X27289D1*
X4587Y9893D2*
X12586D1*
X13288D2*
X15062D1*
X15761D2*
X17062D1*
X17761D2*
X18062D1*
X18761D2*
X19586D1*
X20288D2*
X22312D1*
X24562D2*
X27289D1*
X4587Y9645D2*
X12586D1*
X13288D2*
X15062D1*
X15761D2*
X17062D1*
X17761D2*
X18062D1*
X18761D2*
X19586D1*
X20288D2*
X22391D1*
X24483D2*
X27289D1*
X4587Y9396D2*
X5430D1*
X6444D2*
X12586D1*
X13288D2*
X15062D1*
X15761D2*
X17062D1*
X17761D2*
X18062D1*
X18761D2*
X19586D1*
X20288D2*
X22527D1*
X24347D2*
X27289D1*
X4587Y9147D2*
X5281D1*
X6593D2*
X12586D1*
X13288D2*
X15062D1*
X15761D2*
X17062D1*
X17761D2*
X18062D1*
X18761D2*
X19586D1*
X20288D2*
X22351D1*
X24523D2*
X27289D1*
X4587Y8899D2*
X5250D1*
X6624D2*
X12351D1*
X14280D2*
X14594D1*
X16280D2*
X16594D1*
X19280D2*
X19586D1*
X20288D2*
X22312D1*
X24562D2*
X27289D1*
X4587Y8650D2*
X5312D1*
X6562D2*
X12351D1*
X20480D2*
X22387D1*
X24710D2*
X27289D1*
X4587Y8401D2*
X5437D1*
X6437D2*
X12351D1*
X20523D2*
X22531D1*
X23343D2*
X23644D1*
X24956D2*
X27289D1*
X4587Y8153D2*
X5285D1*
X6589D2*
X12351D1*
X20444D2*
X22351D1*
X23523D2*
X24238D1*
X25042D2*
X27289D1*
X4587Y7904D2*
X5250D1*
X6624D2*
X12351D1*
X13523D2*
X13742D1*
X14132D2*
X14742D1*
X16132D2*
X16730D1*
X18288D2*
X18742D1*
X19132D2*
X19742D1*
X20132D2*
X22312D1*
X23562D2*
X24344D1*
X25042D2*
X27289D1*
X4587Y7655D2*
X5308D1*
X6566D2*
X15062D1*
X15761D2*
X16480D1*
X17448D2*
X17586D1*
X18288D2*
X21012D1*
X25042D2*
X27289D1*
X4587Y7406D2*
X5512D1*
X6362D2*
X15062D1*
X15761D2*
X16308D1*
X17198D2*
X17586D1*
X18288D2*
X20949D1*
X24921D2*
X27289D1*
X4587Y7158D2*
X15062D1*
X15761D2*
X16301D1*
X16999D2*
X17586D1*
X18288D2*
X21031D1*
X24663D2*
X27289D1*
X4587Y6909D2*
X15062D1*
X15761D2*
X16301D1*
X16999D2*
X17112D1*
X18288D2*
X27289D1*
X4587Y6660D2*
X15062D1*
X15761D2*
X16109D1*
X18288D2*
X27289D1*
X4587Y6412D2*
X15074D1*
X15980D2*
X16064D1*
X18288D2*
X27289D1*
X4587Y6163D2*
X15258D1*
X18288D2*
X27289D1*
X4587Y5914D2*
X15508D1*
X18288D2*
X27289D1*
X4587Y5666D2*
X15672D1*
X18198D2*
X27289D1*
X4587Y5417D2*
X15723D1*
X17948D2*
X27289D1*
X4587Y5168D2*
X15945D1*
X16566D2*
X16730D1*
X17355D2*
X27289D1*
X4587Y4920D2*
X27289D1*
X4587Y4671D2*
X27289D1*
X6937Y21211D2*
X6892Y21094D1*
X6821Y20992D1*
X6728Y20910D1*
X6617Y20852D1*
X6496Y20823D1*
X6371Y20824D1*
X6250Y20855D1*
X6140Y20914D1*
X6048Y20997D1*
X5978Y21101D1*
X5935Y21218D1*
X5922Y21342D1*
X5939Y21466D1*
X5985Y21581D1*
X6058Y21683D1*
X6152Y21764D1*
X6264Y21820D1*
X6386Y21847D1*
X6510Y21844D1*
X6631Y21812D1*
X6740Y21751D1*
X6831Y21666D1*
X6899Y21562D1*
X6940Y21444D1*
X6952Y21335D1*
X6937Y21211D1*
X9937D2*
X9892Y21094D1*
X9821Y20992D1*
X9728Y20910D1*
X9617Y20852D1*
X9496Y20823D1*
X9371Y20824D1*
X9250Y20855D1*
X9140Y20914D1*
X9048Y20997D1*
X8978Y21101D1*
X8935Y21218D1*
X8922Y21342D1*
X8939Y21466D1*
X8985Y21581D1*
X9058Y21683D1*
X9152Y21764D1*
X9264Y21820D1*
X9386Y21847D1*
X9510Y21844D1*
X9631Y21812D1*
X9740Y21751D1*
X9831Y21666D1*
X9899Y21562D1*
X9940Y21444D1*
X9952Y21335D1*
X9937Y21211D1*
X12502Y8997D2*
X12615D1*
X12612Y9937D1*
Y10980D1*
X12504Y11082D1*
X12436Y11186D1*
X12393Y11303D1*
X12377Y11427D1*
X12389Y11551D1*
X12427Y11670D1*
X12492Y11777D1*
X12578Y11867D1*
X12682Y11936D1*
X12799Y11980D1*
X12922Y11997D1*
X13046Y11986D1*
X13165Y11949D1*
X13273Y11885D1*
X13364Y11800D1*
X13438Y11686D1*
X13492Y11777D1*
X13578Y11867D1*
X13682Y11936D1*
X13799Y11980D1*
X13922Y11997D1*
X14027Y11988D1*
X15315Y13275D1*
X15418Y13344D1*
X15545Y13370D1*
X16518D1*
X16567Y13535D1*
Y14258D1*
X16474Y14388D1*
X16435Y14507D1*
X16433Y14650D1*
X15872Y14647D1*
X15759Y14563D1*
X15643Y14519D1*
X15519Y14507D1*
X15396Y14529D1*
X15284Y14583D1*
X15190Y14664D1*
X15120Y14768D1*
X15081Y14887D1*
X15079Y15030D1*
X14542Y15027D1*
X13725D1*
X11639Y12943D1*
X11623Y12814D1*
X11574Y12699D1*
X11496Y12601D1*
X11395Y12528D1*
X11279Y12484D1*
X11155Y12473D1*
X11032Y12494D1*
X10920Y12548D1*
X10825Y12630D1*
X10756Y12734D1*
X10717Y12852D1*
X10711Y12976D1*
X10738Y13098D1*
X10797Y13208D1*
X10882Y13299D1*
X10989Y13363D1*
X11109Y13397D1*
X11175Y13398D1*
X13102Y15324D1*
X13017Y15295D1*
X12893Y15284D1*
X12770Y15305D1*
X12657Y15359D1*
X12563Y15441D1*
X12494Y15545D1*
X12455Y15663D1*
X12449Y15787D1*
X12476Y15909D1*
X12535Y16019D1*
X12585Y16073D1*
X12587Y18377D1*
X11877D1*
Y19497D1*
X12115D1*
X12112Y20437D1*
Y21480D1*
X12004Y21582D1*
X11936Y21686D1*
X11893Y21803D1*
X11877Y21927D1*
X11889Y22051D1*
X11927Y22170D1*
X11992Y22277D1*
X12078Y22367D1*
X12182Y22436D1*
X12299Y22480D1*
X12422Y22497D1*
X12546Y22486D1*
X12587Y22473D1*
Y24440D1*
X12611Y24562D1*
X12683Y24669D1*
X12923Y24909D1*
X13026Y24979D1*
X13152Y25005D1*
X24179D1*
X24301Y24981D1*
X24409Y24909D1*
X24649Y24669D1*
X24719Y24566D1*
X24744Y24440D1*
Y20170D1*
X24793Y20111D1*
X24853Y20002D1*
X24884Y19835D1*
X24868Y19711D1*
X24819Y19597D1*
X24741Y19499D1*
X24640Y19426D1*
X24524Y19382D1*
X24400Y19370D1*
X24277Y19392D1*
X24165Y19446D1*
X24070Y19527D1*
X24001Y19631D1*
X23962Y19750D1*
X23956Y19874D1*
X23983Y19996D1*
X24042Y20106D1*
X24092Y20160D1*
X24094Y22835D1*
Y24307D1*
X23929Y24355D1*
X16980D1*
X17142Y24189D1*
X17211Y24086D1*
X17237Y23960D1*
Y22464D1*
X17422Y22497D1*
X17546Y22486D1*
X17665Y22449D1*
X17773Y22385D1*
X17864Y22300D1*
X17938Y22186D1*
X17992Y22277D1*
X18078Y22367D1*
X18182Y22436D1*
X18299Y22480D1*
X18422Y22497D1*
X18546Y22486D1*
X18595Y22471D1*
X18606Y22520D1*
X18683Y22642D1*
X18923Y22882D1*
X19026Y22951D1*
X19152Y22977D1*
X22777D1*
X22899Y22953D1*
X23007Y22882D1*
X23247Y22642D1*
X23316Y22539D1*
X23342Y22412D1*
Y19330D1*
X23507Y19285D1*
X26105D1*
X26145Y19321D1*
X26251Y19386D1*
X26371Y19420D1*
X26496Y19421D1*
X26616Y19389D1*
X26724Y19326D1*
X26811Y19236D1*
X26871Y19127D1*
X26902Y18960D1*
X26885Y18836D1*
X26836Y18722D1*
X26759Y18624D1*
X26658Y18551D1*
X26541Y18507D1*
X26417Y18495D1*
X26295Y18517D1*
X26182Y18571D1*
X26109Y18635D1*
X23257D1*
X23135Y18659D1*
X23027Y18730D1*
X22787Y18970D1*
X22718Y19073D1*
X22692Y19200D1*
Y22282D1*
X22527Y22327D1*
X19836D1*
X19933Y22197D1*
X19979Y22080D1*
X19997Y21937D1*
X19983Y21813D1*
X19942Y21695D1*
X19876Y21589D1*
X19759Y21482D1*
X19762Y20687D1*
Y19394D1*
X19864Y19300D1*
X19933Y19197D1*
X19979Y19080D1*
X19997Y18956D1*
X20113Y19073D1*
X20112Y19437D1*
X20136Y19559D1*
X20207Y19667D1*
X20414Y19874D1*
X20429Y19975D1*
X20470Y20093D1*
X20538Y20197D1*
X20598Y20253D1*
X20553Y20298D1*
X20480Y20399D1*
X20434Y20515D1*
X20416Y20638D1*
X20429Y20762D1*
X20470Y20880D1*
X20493Y20916D1*
X20416D1*
Y21958D1*
X20998D1*
X21143Y22103D1*
X21246Y22172D1*
X21373Y22198D1*
X21920D1*
X22042Y22174D1*
X22150Y22103D1*
X22390Y21863D1*
X22460Y21760D1*
X22485Y21633D1*
Y17324D1*
X23697Y17323D1*
X23819Y17299D1*
X23927Y17228D1*
X24167Y16988D1*
X24236Y16885D1*
X24262Y16758D1*
Y11442D1*
X24327Y11392D1*
X24413Y11302D1*
X24478Y11195D1*
X24520Y11078D1*
X24537Y10937D1*
X24524Y10813D1*
X24485Y10694D1*
X24423Y10586D1*
X24340Y10493D1*
X24268Y10440D1*
X24327Y10392D1*
X24413Y10302D1*
X24478Y10195D1*
X24520Y10078D1*
X24537Y9937D1*
X24524Y9813D1*
X24485Y9694D1*
X24423Y9586D1*
X24340Y9493D1*
X24268Y9440D1*
X24327Y9392D1*
X24413Y9302D1*
X24478Y9195D1*
X24520Y9078D1*
X24537Y8937D1*
X24522Y8809D1*
X24921Y8412D1*
X24991Y8309D1*
X25017Y8182D1*
Y7662D1*
X24993Y7540D1*
X24921Y7433D1*
X24681Y7193D1*
X24578Y7123D1*
X24452Y7097D1*
X21768D1*
X21658Y7013D1*
X21541Y6969D1*
X21417Y6958D1*
X21295Y6980D1*
X21182Y7034D1*
X21088Y7115D1*
X21019Y7219D1*
X20980Y7337D1*
X20974Y7462D1*
X21001Y7583D1*
X21059Y7693D1*
X21145Y7784D1*
X21251Y7849D1*
X21371Y7883D1*
X21496Y7884D1*
X21616Y7851D1*
X21724Y7788D1*
X21765Y7746D1*
X22371Y7747D1*
X22352Y7805D1*
X22338Y7928D1*
X22349Y8053D1*
X22385Y8172D1*
X22446Y8281D1*
X22528Y8375D1*
X22606Y8434D1*
X22541Y8487D1*
X22456Y8579D1*
X22392Y8686D1*
X22352Y8805D1*
X22338Y8928D1*
X22349Y9053D1*
X22385Y9172D1*
X22446Y9281D1*
X22528Y9375D1*
X22606Y9434D1*
X22541Y9487D1*
X22456Y9579D1*
X22392Y9686D1*
X22352Y9805D1*
X22338Y9928D1*
X22349Y10053D1*
X22385Y10172D1*
X22446Y10281D1*
X22528Y10375D1*
X22606Y10434D1*
X22541Y10487D1*
X22456Y10579D1*
X22392Y10686D1*
X22352Y10805D1*
X22338Y10928D1*
X22349Y11053D1*
X22385Y11172D1*
X22446Y11281D1*
X22528Y11375D1*
X22627Y11450D1*
X22740Y11503D1*
X22862Y11532D1*
X22987Y11535D1*
X23109Y11511D1*
X23224Y11463D1*
X23327Y11392D1*
X23413Y11302D1*
X23435Y11265D1*
X23528Y11375D1*
X23612Y11439D1*
Y16621D1*
X23447Y16673D1*
X22935D1*
X22985Y16614D1*
X23045Y16504D1*
X23076Y16337D1*
X23060Y16214D1*
X23011Y16099D1*
X22933Y16001D1*
X22832Y15928D1*
X22716Y15884D1*
X22592Y15873D1*
X22469Y15894D1*
X22357Y15948D1*
X22283Y16012D1*
X20826D1*
X20714Y15915D1*
X20602Y15860D1*
X20480Y15834D1*
X20398Y15837D1*
X19813Y15254D1*
X19812Y14352D1*
X19861Y14294D1*
X19921Y14184D1*
X19952Y14017D1*
X19936Y13894D1*
X19887Y13779D1*
X19809Y13681D1*
X19709Y13608D1*
X19592Y13564D1*
X19468Y13553D1*
X19345Y13574D1*
X19264Y13613D1*
X19262Y11891D1*
X19364Y11800D1*
X19438Y11686D1*
X19492Y11777D1*
X19578Y11867D1*
X19682Y11936D1*
X19799Y11980D1*
X19922Y11997D1*
X20046Y11986D1*
X20165Y11949D1*
X20273Y11885D1*
X20364Y11800D1*
X20433Y11697D1*
X20479Y11580D1*
X20497Y11437D1*
X20483Y11313D1*
X20442Y11195D1*
X20376Y11089D1*
X20259Y10982D1*
X20262Y10187D1*
Y8894D1*
X20364Y8800D1*
X20433Y8697D1*
X20479Y8580D1*
X20497Y8437D1*
X20483Y8313D1*
X20442Y8195D1*
X20376Y8089D1*
X20288Y8001D1*
X20183Y7934D1*
X20066Y7892D1*
X19942Y7877D1*
X19818Y7890D1*
X19700Y7930D1*
X19593Y7995D1*
X19504Y8082D1*
X19438Y8183D1*
X19376Y8089D1*
X19288Y8001D1*
X19183Y7934D1*
X19066Y7892D1*
X18942Y7877D1*
X18818Y7890D1*
X18700Y7930D1*
X18593Y7995D1*
X18504Y8082D1*
X18438Y8183D1*
X18376Y8089D1*
X18259Y7982D1*
X18262Y7187D1*
Y5890D1*
X18238Y5768D1*
X18167Y5660D1*
X17927Y5420D1*
X17824Y5350D1*
X17697Y5325D1*
X17498D1*
X17395Y5213D1*
X17290Y5146D1*
X17172Y5104D1*
X17048Y5089D1*
X16924Y5102D1*
X16806Y5142D1*
X16700Y5207D1*
X16652Y5253D1*
X16607Y5213D1*
X16502Y5146D1*
X16385Y5104D1*
X16261Y5089D1*
X16137Y5102D1*
X16019Y5142D1*
X15912Y5207D1*
X15823Y5294D1*
X15755Y5399D1*
X15712Y5516D1*
X15696Y5640D1*
X15706Y5744D1*
X15183Y6263D1*
X15113Y6366D1*
X15087Y6493D1*
Y7896D1*
X14942Y7877D1*
X14818Y7890D1*
X14700Y7930D1*
X14593Y7995D1*
X14504Y8082D1*
X14438Y8183D1*
X14376Y8089D1*
X14288Y8001D1*
X14183Y7934D1*
X14066Y7892D1*
X13942Y7877D1*
X13818Y7890D1*
X13700Y7930D1*
X13593Y7995D1*
X13498Y8091D1*
X13497Y7877D1*
X12377D1*
Y8997D1*
X12502D1*
X13264D2*
X13497D1*
Y8782D1*
X13578Y8867D1*
X13682Y8936D1*
X13799Y8980D1*
X13922Y8997D1*
X14046Y8986D1*
X14165Y8949D1*
X14273Y8885D1*
X14364Y8800D1*
X14438Y8686D1*
X14492Y8777D1*
X14578Y8867D1*
X14682Y8936D1*
X14799Y8980D1*
X14922Y8997D1*
X15046Y8986D1*
X15087Y8973D1*
Y10825D1*
X14942Y10877D1*
X14818Y10890D1*
X14700Y10930D1*
X14593Y10995D1*
X14504Y11082D1*
X14438Y11183D1*
X14376Y11089D1*
X14288Y11001D1*
X14183Y10934D1*
X14066Y10892D1*
X13942Y10877D1*
X13818Y10890D1*
X13700Y10930D1*
X13593Y10995D1*
X13504Y11082D1*
X13438Y11183D1*
X13376Y11089D1*
X13259Y10982D1*
X13262Y10187D1*
Y8996D1*
X16436Y8185D2*
X16376Y8089D1*
X16288Y8001D1*
X16183Y7934D1*
X16066Y7892D1*
X15942Y7877D1*
X15818Y7890D1*
X15740Y7916D1*
X15737Y6962D1*
Y6630D1*
X16125Y6240D1*
X16106Y6303D1*
X16090Y6427D1*
X16101Y6551D1*
X16140Y6670D1*
X16204Y6777D1*
X16290Y6867D1*
X16326Y6891D1*
X16325Y7340D1*
X16348Y7462D1*
X16420Y7570D1*
X16754Y7904D1*
X16593Y7995D1*
X16504Y8082D1*
X16438Y8183D1*
X15737Y8956D2*
X15799Y8980D1*
X15922Y8997D1*
X16046Y8986D1*
X16165Y8949D1*
X16273Y8885D1*
X16364Y8800D1*
X16438Y8686D1*
X16492Y8777D1*
X16578Y8867D1*
X16682Y8936D1*
X16799Y8980D1*
X16922Y8997D1*
X17046Y8986D1*
X17087Y8978D1*
Y10899D1*
X16942Y10877D1*
X16818Y10890D1*
X16700Y10930D1*
X16593Y10995D1*
X16504Y11082D1*
X16438Y11183D1*
X16376Y11089D1*
X16288Y11001D1*
X16183Y10934D1*
X16066Y10892D1*
X15942Y10877D1*
X15818Y10890D1*
X15740Y10916D1*
X15737Y9962D1*
Y8958D1*
X17737Y8956D2*
X17799Y8980D1*
X17922Y8997D1*
X18046Y8986D1*
X18087Y8973D1*
Y10895D1*
X17942Y10877D1*
X17845Y10887D1*
X17739Y10779D1*
X17737Y8963D1*
X18849Y8987D2*
X18922Y8997D1*
X19046Y8986D1*
X19165Y8949D1*
X19273Y8885D1*
X19364Y8800D1*
X19438Y8686D1*
X19492Y8777D1*
X19578Y8867D1*
X19614Y8891D1*
X19612Y10980D1*
X19504Y11082D1*
X19438Y11183D1*
X19376Y11089D1*
X19288Y11001D1*
X19183Y10934D1*
X19066Y10892D1*
X18942Y10877D1*
X18818Y10890D1*
X18740Y10916D1*
X18737Y9672D1*
Y9098D1*
X18844Y8990D1*
X13936Y18685D2*
X13876Y18589D1*
X13759Y18482D1*
X13762Y17687D1*
Y16105D1*
X13927Y16057D1*
X14743D1*
X14692Y16107D1*
X14622Y16211D1*
X14583Y16329D1*
X14577Y16454D1*
X14604Y16576D1*
X14663Y16686D1*
X14748Y16776D1*
X14855Y16841D1*
X14975Y16875D1*
X15099Y16876D1*
X15220Y16843D1*
X15327Y16780D1*
X15368Y16739D1*
X17537D1*
X17587Y16905D1*
Y18401D1*
X17442Y18377D1*
X17318Y18390D1*
X17200Y18430D1*
X17093Y18495D1*
X17004Y18582D1*
X16938Y18683D1*
X16876Y18589D1*
X16788Y18501D1*
X16683Y18434D1*
X16566Y18392D1*
X16442Y18377D1*
X16318Y18390D1*
X16200Y18430D1*
X16093Y18495D1*
X16004Y18582D1*
X15938Y18683D1*
X15876Y18589D1*
X15788Y18501D1*
X15683Y18434D1*
X15566Y18392D1*
X15442Y18377D1*
X15318Y18390D1*
X15200Y18430D1*
X15093Y18495D1*
X15004Y18582D1*
X14938Y18683D1*
X14876Y18589D1*
X14788Y18501D1*
X14683Y18434D1*
X14566Y18392D1*
X14442Y18377D1*
X14318Y18390D1*
X14200Y18430D1*
X14093Y18495D1*
X14004Y18582D1*
X13938Y18683D1*
X14349Y19487D2*
X14422Y19497D1*
X14546Y19486D1*
X14665Y19449D1*
X14773Y19385D1*
X14864Y19300D1*
X14938Y19186D1*
X14992Y19277D1*
X15078Y19367D1*
X15182Y19436D1*
X15299Y19480D1*
X15422Y19497D1*
X15546Y19486D1*
X15665Y19449D1*
X15773Y19385D1*
X15864Y19300D1*
X15938Y19186D1*
X15992Y19277D1*
X16078Y19367D1*
X16182Y19436D1*
X16299Y19480D1*
X16422Y19497D1*
X16546Y19486D1*
X16587Y19473D1*
Y21395D1*
X16442Y21377D1*
X16318Y21390D1*
X16200Y21430D1*
X16093Y21495D1*
X16004Y21582D1*
X15938Y21683D1*
X15876Y21589D1*
X15788Y21501D1*
X15683Y21434D1*
X15566Y21392D1*
X15442Y21377D1*
X15318Y21390D1*
X15200Y21430D1*
X15093Y21495D1*
X15004Y21582D1*
X14938Y21683D1*
X14876Y21589D1*
X14788Y21501D1*
X14683Y21434D1*
X14566Y21392D1*
X14442Y21377D1*
X14318Y21390D1*
X14262Y21408D1*
Y19574D1*
X14346Y19487D1*
X17349D2*
X17422Y19497D1*
X17546Y19486D1*
X17679Y19443D1*
X18586Y20350D1*
X18587Y20932D1*
X18437Y20897D1*
X18246D1*
X18133Y20813D1*
X18017Y20769D1*
X17893Y20757D1*
X17770Y20779D1*
X17657Y20833D1*
X17563Y20915D1*
X17494Y21018D1*
X17455Y21137D1*
X17449Y21261D1*
X17475Y21379D1*
X17318Y21390D1*
X17240Y21416D1*
X17237Y20460D1*
Y19596D1*
X17344Y19490D1*
X18936Y18685D2*
X18876Y18589D1*
X18759Y18482D1*
X18763Y18222D1*
X19064Y18524D1*
X19004Y18582D1*
X18938Y18683D1*
X18617Y19464D2*
X18665Y19449D1*
X18773Y19385D1*
X18864Y19300D1*
X18938Y19186D1*
X18992Y19277D1*
X19078Y19367D1*
X19114Y19391D1*
X19112Y19957D1*
X18620Y19465D1*
X16237Y22456D2*
X16299Y22480D1*
X16422Y22497D1*
X16546Y22486D1*
X16587Y22473D1*
Y23825D1*
X16422Y23875D1*
X16067D1*
X16199Y23803D1*
X16286Y23714D1*
X16346Y23604D1*
X16377Y23437D1*
X16361Y23314D1*
X16312Y23199D1*
X16236Y23104D1*
X16237Y22457D1*
X13237Y22456D2*
X13299Y22480D1*
X13422Y22497D1*
X13546Y22486D1*
X13610Y22466D1*
X13593Y22495D1*
X13504Y22582D1*
X13436Y22686D1*
X13393Y22803D1*
X13377Y22927D1*
X13389Y23051D1*
X13427Y23170D1*
X13492Y23277D1*
X13578Y23367D1*
X13682Y23436D1*
X13826Y23484D1*
X13787Y23591D1*
X13771Y23715D1*
X13782Y23839D1*
X13821Y23957D1*
X13885Y24064D1*
X13972Y24154D1*
X14076Y24223D1*
X14192Y24267D1*
X14316Y24284D1*
X14421Y24275D1*
X14501Y24355D1*
X13285D1*
X13237Y24190D1*
Y22459D1*
X17048Y6836D2*
X17078Y6867D1*
X17182Y6936D1*
X17299Y6980D1*
X17422Y6997D1*
X17546Y6986D1*
X17610Y6966D1*
X17612Y7847D1*
X16976Y7208D1*
X16975Y6891D1*
X17039Y6835D1*
X6590Y7813D2*
X6555Y7693D1*
X6499Y7582D1*
X6423Y7483D1*
X6329Y7400D1*
X6222Y7336D1*
X6105Y7294D1*
X5981Y7274D1*
X5857Y7277D1*
X5735Y7304D1*
X5620Y7353D1*
X5516Y7422D1*
X5427Y7510D1*
X5357Y7613D1*
X5306Y7727D1*
X5278Y7848D1*
X5273Y7973D1*
X5292Y8097D1*
X5333Y8214D1*
X5395Y8322D1*
X5498Y8434D1*
X5427Y8510D1*
X5357Y8613D1*
X5306Y8727D1*
X5278Y8848D1*
X5273Y8973D1*
X5292Y9097D1*
X5333Y9214D1*
X5395Y9322D1*
X5477Y9417D1*
X5575Y9494D1*
X5685Y9552D1*
X5805Y9589D1*
X5929Y9602D1*
X6053Y9592D1*
X6173Y9559D1*
X6285Y9503D1*
X6385Y9428D1*
X6469Y9336D1*
X6534Y9229D1*
X6578Y9113D1*
X6602Y8937D1*
X6590Y8813D1*
X6555Y8693D1*
X6499Y8582D1*
X6423Y8483D1*
X6373Y8439D1*
X6469Y8336D1*
X6534Y8229D1*
X6578Y8113D1*
X6602Y7937D1*
X6590Y7813D1*
Y11813D2*
X6555Y11693D1*
X6499Y11582D1*
X6423Y11483D1*
X6329Y11400D1*
X6222Y11336D1*
X6105Y11294D1*
X5981Y11274D1*
X5857Y11277D1*
X5735Y11304D1*
X5620Y11353D1*
X5516Y11422D1*
X5427Y11510D1*
X5357Y11613D1*
X5306Y11727D1*
X5278Y11848D1*
X5273Y11973D1*
X5292Y12097D1*
X5333Y12214D1*
X5395Y12322D1*
X5477Y12417D1*
X5575Y12494D1*
X5685Y12552D1*
X5805Y12589D1*
X5929Y12602D1*
X6053Y12592D1*
X6173Y12559D1*
X6285Y12503D1*
X6385Y12428D1*
X6469Y12336D1*
X6534Y12229D1*
X6578Y12113D1*
X6602Y11937D1*
X6590Y11813D1*
X21331Y20309D2*
X21273Y20257D1*
X21313Y20222D1*
X21388Y20122D1*
X21437Y20008D1*
X21458Y19862D1*
X21443Y19738D1*
X21399Y19622D1*
X21329Y19519D1*
X21236Y19436D1*
X21126Y19377D1*
X21005Y19346D1*
X20880Y19344D1*
X20816Y19360D1*
X20762Y19187D1*
Y18937D1*
X20738Y18815D1*
X20667Y18707D1*
X20167Y18207D1*
X20064Y18138D1*
X19937Y18112D1*
X19574D1*
X19051Y17591D1*
X19052Y17216D1*
X19167Y17219D1*
X19287Y17187D1*
X19394Y17124D1*
X19435Y17082D1*
X20799Y17083D1*
Y17177D1*
X20827Y17299D1*
X20885Y17409D1*
X20971Y17500D1*
X21077Y17564D1*
X21197Y17598D1*
X21263Y17599D1*
X21317Y17652D1*
X21318Y18366D1*
X21225Y18496D1*
X21186Y18615D1*
X21179Y18739D1*
X21207Y18861D1*
X21265Y18971D1*
X21351Y19061D1*
X21457Y19126D1*
X21577Y19160D1*
X21702Y19161D1*
X21839Y19119D1*
X21835Y19498D1*
Y20142D1*
X21792Y20133D1*
X21668Y20132D1*
X21546Y20160D1*
X21435Y20217D1*
X21334Y20307D1*
X23524Y7813D2*
X23503Y7750D1*
X24316Y7747D1*
X24367Y7912D1*
Y8049D1*
X24061Y8353D1*
X24004Y8341D1*
X23879Y8340D1*
X23757Y8365D1*
X23642Y8415D1*
X23541Y8487D1*
X23438Y8609D1*
X23340Y8493D1*
X23268Y8440D1*
X23327Y8392D1*
X23413Y8302D1*
X23478Y8195D1*
X23520Y8078D1*
X23537Y7937D1*
X23524Y7813D1*
X20484Y13935D2*
X20356Y13939D1*
X20236Y13974D1*
X20129Y14037D1*
X20040Y14125D1*
X19976Y14232D1*
X19939Y14351D1*
X19934Y14476D1*
X19958Y14598D1*
X20012Y14710D1*
X20092Y14806D1*
X20193Y14879D1*
X20309Y14925D1*
X20433Y14942D1*
X20556Y14928D1*
X20673Y14883D1*
X20775Y14812D1*
X20857Y14718D1*
X20913Y14606D1*
X20942Y14437D1*
X20937Y14394D1*
X22172Y13161D1*
X22319Y13196D1*
X22426Y13261D1*
X22546Y13295D1*
X22670Y13296D1*
X22791Y13264D1*
X22898Y13201D1*
X22985Y13111D1*
X23045Y13002D1*
X23076Y12835D1*
X23060Y12711D1*
X23011Y12597D1*
X22933Y12499D1*
X22832Y12426D1*
X22716Y12382D1*
X22592Y12370D1*
X22469Y12392D1*
X22357Y12446D1*
X22283Y12510D1*
X22039D1*
X21917Y12533D1*
X21810Y12605D1*
X20481Y13933D1*
X19937Y16294D2*
X19934Y16376D1*
X19945Y16433D1*
X19440D1*
X19329Y16349D1*
X19212Y16305D1*
X19088Y16293D1*
X19053Y16300D1*
X19052Y14968D1*
X19160Y14892D1*
X19163Y15388D1*
X19186Y15510D1*
X19258Y15617D1*
X19935Y16294D1*
X17480Y15911D2*
X17431Y15796D1*
X17356Y15702D1*
X17357Y15592D1*
X17333Y15470D1*
X17262Y15362D1*
X17198Y15298D1*
X17886Y15297D1*
X17884Y15391D1*
X17911Y15513D1*
X17970Y15623D1*
X18055Y15713D1*
X18112Y15748D1*
Y16398D1*
X17902Y16185D1*
X17799Y16115D1*
X17672Y16090D1*
X17496D1*
X17497Y16035D1*
X17480Y15911D1*
X15266Y12308D2*
X15316Y12339D1*
X15436Y12373D1*
X15561D1*
X15681Y12341D1*
X15789Y12278D1*
X15829Y12236D1*
X18172Y12237D1*
X18294Y12213D1*
X18402Y12142D1*
X18612Y11937D1*
Y14160D1*
X18588Y14181D1*
X18519Y14285D1*
X18480Y14403D1*
X18474Y14528D1*
X18500Y14645D1*
X17356Y14647D1*
X17357Y14592D1*
X17340Y14468D1*
X17291Y14354D1*
X17216Y14259D1*
X17217Y13285D1*
X17193Y13163D1*
X17122Y13055D1*
X16882Y12815D1*
X16779Y12746D1*
X16652Y12720D1*
X15679D1*
X15280Y12321D1*
X4562Y25187D2*
Y4562D1*
X27312D1*
Y25312D1*
X4562D1*
Y25187D1*
D17*
X6437Y21335D3*
D18*
Y22335D3*
D17*
X9437Y21335D3*
D18*
Y22335D3*
D25*
X12937Y8437D3*
D26*
X13937D3*
X14937D3*
X15937D3*
X16937D3*
X17937D3*
X18937D3*
X19937D3*
Y11437D3*
X18937D3*
X17937D3*
X16937D3*
X15937D3*
X14937D3*
X13937D3*
X12937D3*
D25*
X12437Y18937D3*
D26*
X13437D3*
X14437D3*
X15437D3*
X16437D3*
X17437D3*
X18437D3*
X19437D3*
Y21937D3*
X18437D3*
X17437D3*
X16437D3*
X15437D3*
X14437D3*
X13437D3*
X12437D3*
D27*
X17437Y6437D3*
X17043Y5650D3*
X16650Y6437D3*
X16256Y5650D3*
X13937Y22937D3*
X14331Y23724D3*
X14724Y22937D3*
X15118Y23724D3*
D32*
X5937Y7937D3*
Y8937D3*
Y11937D3*
Y10937D3*
D33*
X20937Y21437D3*
D34*
Y20650D3*
Y19862D3*
X21724Y21437D3*
Y20650D3*
Y19862D3*
D36*
X23937Y7937D3*
D37*
X22937D3*
X23937Y8937D3*
X22937D3*
X23937Y9937D3*
X22937D3*
X23937Y10937D3*
X22937D3*
D38*
X20437Y14437D3*
Y16337D3*
M02*
