G04 DipTrace Beta 2.3.9.1*
%INBottomMask.gbr*%
%MOIN*%
%ADD25R,0.0591X0.0591*%
%ADD26C,0.0591*%
%ADD36R,0.0669X0.0669*%
%ADD37C,0.0669*%
%ADD49C,0.0559*%
%ADD51C,0.0748*%
%ADD52R,0.0748X0.0748*%
%ADD57C,0.0879*%
%ADD65C,0.0669*%
%ADD73R,0.0579X0.0579*%
%ADD75C,0.0579*%
%FSLAX44Y44*%
G04*
G70*
G90*
G75*
G01*
%LNBotMask*%
%LPD*%
D75*
X6437Y21335D3*
D73*
Y22335D3*
D75*
X9437Y21335D3*
D73*
Y22335D3*
D36*
X12937Y8437D3*
D37*
X13937D3*
X14937D3*
X15937D3*
X16937D3*
X17937D3*
X18937D3*
X19937D3*
Y11437D3*
X18937D3*
X17937D3*
X16937D3*
X15937D3*
X14937D3*
X13937D3*
X12937D3*
D36*
X12437Y18937D3*
D37*
X13437D3*
X14437D3*
X15437D3*
X16437D3*
X17437D3*
X18437D3*
X19437D3*
Y21937D3*
X18437D3*
X17437D3*
X16437D3*
X15437D3*
X14437D3*
X13437D3*
X12437D3*
D65*
X17437Y6437D3*
X17043Y5650D3*
X16650Y6437D3*
X16256Y5650D3*
X13937Y22937D3*
X14331Y23724D3*
X14724Y22937D3*
X15118Y23724D3*
D57*
X5937Y7937D3*
Y8937D3*
Y11937D3*
Y10937D3*
D25*
X20937Y21437D3*
D26*
Y20650D3*
Y19862D3*
X21724Y21437D3*
Y20650D3*
Y19862D3*
D52*
X23937Y7937D3*
D51*
X22937D3*
X23937Y8937D3*
X22937D3*
X23937Y9937D3*
X22937D3*
X23937Y10937D3*
X22937D3*
D49*
X20437Y14437D3*
Y16337D3*
M02*
