G04 DipTrace Beta 2.3.9.1*
%INTopMask.gbr*%
%MOIN*%
%ADD25R,0.0591X0.0591*%
%ADD26C,0.0591*%
%ADD36R,0.0669X0.0669*%
%ADD37C,0.0669*%
%ADD49C,0.0559*%
%ADD51C,0.0748*%
%ADD52R,0.0748X0.0748*%
%ADD53R,0.1059X0.1379*%
%ADD57C,0.0879*%
%ADD59R,0.0925X0.1358*%
%ADD61R,0.0925X0.0453*%
%ADD63R,0.0492X0.0335*%
%ADD65C,0.0669*%
%ADD67R,0.0748X0.0276*%
%ADD69R,0.0276X0.0748*%
%ADD71R,0.063X0.1161*%
%ADD73R,0.0579X0.0579*%
%ADD75C,0.0579*%
%ADD77R,0.0787X0.0709*%
%ADD79R,0.0709X0.0787*%
%FSLAX44Y44*%
G04*
G70*
G90*
G75*
G01*
%LNTopMask*%
%LPD*%
D79*
X19437Y12937D3*
X18335D3*
X17937Y23437D3*
X19039D3*
D77*
X23437Y16437D3*
Y15335D3*
Y13937D3*
Y12835D3*
X6937Y5437D3*
Y6539D3*
X7937Y8937D3*
Y7835D3*
D79*
X8437Y6437D3*
X9539D3*
X9437Y10937D3*
X10539D3*
D77*
X7937Y11937D3*
Y10835D3*
D75*
X6437Y21335D3*
D73*
Y22335D3*
D75*
X9437Y21335D3*
D73*
Y22335D3*
D77*
X6437Y15937D3*
Y17039D3*
X7937Y15937D3*
Y17039D3*
D79*
X11937Y12937D3*
X13039D3*
D77*
X10937Y15437D3*
Y16539D3*
X21437Y10937D3*
Y9835D3*
X25488Y12988D3*
Y11886D3*
D79*
X21437Y5937D3*
X20335D3*
X23437D3*
X24539D3*
X9437Y12937D3*
X10539D3*
D77*
X21937Y15437D3*
Y16539D3*
Y12937D3*
Y14039D3*
D79*
X6937Y12937D3*
X8039D3*
D77*
X5937Y18335D3*
Y19437D3*
X7437Y18335D3*
Y19437D3*
X10437D3*
Y18335D3*
X8937Y19437D3*
Y18335D3*
D79*
X22937Y18937D3*
X24039D3*
D77*
X26437Y20937D3*
Y19835D3*
X25437Y20937D3*
Y19835D3*
X9437Y16437D3*
Y15335D3*
D71*
X26437Y16937D3*
Y14280D3*
X24862Y16937D3*
Y14280D3*
D69*
X14937Y13937D3*
X15252D3*
X15567D3*
X15882D3*
X16197D3*
X16512D3*
X16827D3*
X17142D3*
D67*
X17693Y14488D3*
Y14803D3*
Y15118D3*
Y15433D3*
Y15748D3*
Y16063D3*
Y16378D3*
Y16693D3*
D69*
X17142Y17244D3*
X16827D3*
X16512D3*
X16197D3*
X15882D3*
X15567D3*
X15252D3*
X14937D3*
D67*
X14386Y16693D3*
Y16378D3*
Y16063D3*
Y15748D3*
Y15433D3*
Y15118D3*
Y14803D3*
Y14488D3*
D36*
X12937Y8437D3*
D37*
X13937D3*
X14937D3*
X15937D3*
X16937D3*
X17937D3*
X18937D3*
X19937D3*
Y11437D3*
X18937D3*
X17937D3*
X16937D3*
X15937D3*
X14937D3*
X13937D3*
X12937D3*
D36*
X12437Y18937D3*
D37*
X13437D3*
X14437D3*
X15437D3*
X16437D3*
X17437D3*
X18437D3*
X19437D3*
Y21937D3*
X18437D3*
X17437D3*
X16437D3*
X15437D3*
X14437D3*
X13437D3*
X12437D3*
D65*
X17437Y6437D3*
X17043Y5650D3*
X16650Y6437D3*
X16256Y5650D3*
X13937Y22937D3*
X14331Y23724D3*
X14724Y22937D3*
X15118Y23724D3*
D63*
X9437Y8937D3*
Y8189D3*
X10343Y8563D3*
D61*
X11437Y6937D3*
Y6031D3*
Y5126D3*
D59*
X13720Y6031D3*
D57*
X5937Y7937D3*
Y8937D3*
Y11937D3*
Y10937D3*
D25*
X20937Y21437D3*
D26*
Y20650D3*
Y19862D3*
X21724Y21437D3*
Y20650D3*
Y19862D3*
D53*
X24437Y20937D3*
Y22397D3*
X23257D3*
Y20937D3*
D52*
X23937Y7937D3*
D51*
X22937D3*
X23937Y8937D3*
X22937D3*
X23937Y9937D3*
X22937D3*
X23937Y10937D3*
X22937D3*
D49*
X20437Y14437D3*
Y16337D3*
M02*
